<?xml version="1.0" encoding="UTF-8"?>
<svg width="110px" height="78px" viewBox="0 0 110 78" version="1.1" xmlns="http://www.w3.org/2000/svg" xmlns:xlink="http://www.w3.org/1999/xlink">
    <!-- Generator: Sketch 40.3 (33839) - http://www.bohemiancoding.com/sketch -->
    <title>icon</title>
    <desc>Created with Sketch.</desc>
    <defs></defs>
    <g id="Welcome" stroke="none" stroke-width="1" fill="none" fill-rule="evenodd">
        <g id="Desktop-HD-Copy" transform="translate(-685.000000, -2875.000000)" fill="#FEFEFE">
            <g id="sec_4-copy-2" transform="translate(-1.000000, 2160.000000)">
                <g id="Group-10" transform="translate(500.000000, 593.000000)">
                    <g id="icon" transform="translate(186.000000, 122.000000)">
                        <path d="M90.9546,31.2358332 C90.9546,31.8270359 90.4753143,32.3066019 89.8860286,32.3066019 L88.4340286,32.3066019 C87.8431714,32.3066019 87.3638857,31.8270359 87.3638857,31.2358332 L87.3638857,27.1351509 C87.3638857,26.5439482 87.8431714,26.0643822 88.4340286,26.0643822 L89.8860286,26.0643822 C90.4753143,26.0643822 90.9546,26.5439482 90.9546,27.1351509 L90.9546,31.2358332 Z" id="Fill-1"></path>
                        <path d="M91.8371143,29.7740217 L91.8371143,31.2363049 C91.8371143,32.3117907 90.9602571,33.1875882 89.8854,33.1875882 L88.4334,33.1875882 C87.3585429,33.1875882 86.4832571,32.3117907 86.4832571,31.2363049 L86.4832571,29.7740217 C80.6501143,29.5727612 75.2554,28.7236936 70.7014,27.3966323 L70.7014,38.9376632 C70.7014,39.620062 71.2545429,40.171956 71.9349714,40.171956 L106.383829,40.171956 C107.064257,40.171956 107.6174,39.620062 107.6174,38.9376632 L107.6174,27.3966323 C103.064971,28.7236936 97.6686857,29.5727612 91.8371143,29.7740217" id="Fill-3"></path>
                        <path d="M107.035029,8.71777247 L71.2850286,8.71777247 C70.6030286,8.71777247 70.0498857,9.27123881 70.0498857,9.95206529 L70.0498857,22.8626109 C74.6038857,24.1896722 80.6507429,25.2557239 86.4823143,25.4569843 L86.4823143,24.1472188 C86.4823143,23.0701608 87.3591714,22.1943632 88.4340286,22.1943632 L89.8860286,22.1943632 C90.9608857,22.1943632 91.8377429,23.0701608 91.8377429,24.1472188 L91.8377429,25.4569843 C97.6693143,25.2557239 103.716171,24.1896722 108.2686,22.8626109 L108.2686,9.95206529 C108.2686,9.27123881 107.717029,8.71777247 107.035029,8.71777247" id="Fill-5"></path>
                        <path d="M68.4943286,47.4368305 C71.2097571,53.5847094 79.4346143,58.0548934 89.1601857,58.0548934 C98.8857571,58.0548934 107.110614,53.5847094 109.824471,47.4368305 L68.4943286,47.4368305 Z" id="Fill-7"></path>
                        <path d="M1.12545714,47.4368305 C3.84088571,53.5847094 12.0657429,58.0548934 21.7913143,58.0548934 C31.5168857,58.0548934 39.7417429,53.5847094 42.4556,47.4368305 L1.12545714,47.4368305 Z" id="Fill-9"></path>
                        <path d="M94.5011571,54.3603484 L91.2090143,54.3603484 L91.2090143,51.0316887 C91.2090143,50.3414281 90.2913,49.7832448 89.1598714,49.7832448 C88.0284429,49.7832448 87.1107286,50.3414281 87.1107286,51.0316887 L87.1107286,54.3603484 L23.9094429,54.3603484 L23.9094429,51.0316887 C23.9094429,50.3414281 22.9933,49.7832448 21.8603,49.7832448 C20.7288714,49.7832448 19.8111571,50.3414281 19.8111571,51.0316887 L19.8111571,54.3603484 L16.5190143,54.3603484 C15.3671571,54.3603484 14.6128714,55.0836283 14.6128714,55.9767217 C14.6128714,56.8698151 15.3671571,57.5946673 16.5190143,57.5946673 L94.5011571,57.5946673 C95.6545857,57.5946673 96.4073,56.8698151 96.4073,55.9767217 C96.4073,55.0836283 95.6545857,54.3603484 94.5011571,54.3603484" id="Fill-11"></path>
                        <path d="M64.6440143,77.0534115 L65.0227286,77.0534115 C67.0215857,77.0534115 67.8387286,75.6367263 66.8393,73.9039994 L57.3274429,57.4195078 C56.3280143,55.6867808 54.6921571,55.6867808 53.6927286,57.4195078 L44.1808714,73.9039994 C43.1814429,75.6367263 43.9985857,77.0534115 45.9990143,77.0534115 L46.3761571,77.0534115" id="Fill-13"></path>
                        <g id="Group-17" transform="translate(0.000000, 0.008697)">
                            <path d="M43.5095571,18.2813703 C43.4734143,18.1744507 43.4231286,18.0691034 43.3634143,17.9747626 C43.2047,17.6901677 42.9941286,17.4244409 42.7238429,17.1901611 L37.2474143,12.4322375 L37.2474143,5.45730383 C37.2474143,4.97616548 36.7995571,4.5830786 36.2511286,4.5830786 L31.5227,4.5830786 C30.9742714,4.5830786 30.5264143,4.97616548 30.5264143,5.45730383 L30.5264143,6.59568344 L24.1479857,1.05630307 C23.4989857,0.491830309 22.6457,0.208807753 21.7908429,0.208807753 C20.9375571,0.208807753 20.0858429,0.491830309 19.4337,1.05630307 L0.857842857,17.1901611 C0.587557143,17.4244409 0.378557143,17.6901677 0.219842857,17.9747626 C0.158557143,18.0691034 0.109842857,18.1744507 0.0721285714,18.2813703 C0.0265571429,18.4197369 -0.000157142855,18.5659652 -0.000157142855,18.7153382 L-0.000157142855,19.7263577 C-0.000157142855,20.5769977 0.794985714,21.2672583 1.77555714,21.2672583 L6.1017,21.2672583 L6.1017,38.7879269 C6.1017,40.2659336 6.6627,40.7187697 8.41641429,40.7187697 L17.7459857,40.7187697 L17.7459857,29.8003884 L25.8341286,29.8003884 L25.8341286,40.7187697 L35.1652714,40.7187697 C36.9189857,40.7187697 37.4799857,40.2659336 37.4799857,38.7879269 L37.4799857,21.2672583 L41.8077,21.2672583 C42.7882714,21.2672583 43.5818429,20.5769977 43.5818429,19.7263577 L43.5818429,18.7153382 C43.5818429,18.5659652 43.5567,18.4197369 43.5095571,18.2813703" id="Fill-15"></path>
                        </g>
                    </g>
                </g>
            </g>
        </g>
    </g>
</svg>