<?xml version="1.0" encoding="UTF-8"?>
<svg width="145px" height="44px" viewBox="0 0 145 44" version="1.1" xmlns="http://www.w3.org/2000/svg" xmlns:xlink="http://www.w3.org/1999/xlink">
    <!-- Generator: Sketch 40.3 (33839) - http://www.bohemiancoding.com/sketch -->
    <title>Page 1</title>
    <desc>Created with Sketch.</desc>
    <defs>
        <polygon id="path-1" points="144.925287 43.6721236 0 43.6721236 0 0.0493766641 144.925287 0.0493766641"></polygon>
    </defs>
    <g id="Welcome" stroke="none" stroke-width="1" fill="none" fill-rule="evenodd">
        <g id="Desktop-HD-Copy" transform="translate(-669.000000, -2961.000000)">
            <g id="sec_4-copy" transform="translate(-1.000000, 2160.000000)">
                <g id="Page-1" transform="translate(670.000000, 801.000000)">
                    <g id="Group-5">
                        <mask id="mask-2" fill="white">
                            <use xlink:href="#path-1"></use>
                        </mask>
                        <g id="Clip-4"></g>
                        <path d="M73.1653866,26.1513064 C73.1329116,26.1594557 73.0991954,26.1655155 73.0660999,26.1715753 C73.0439672,26.1753365 73.0220414,26.1790977 72.999495,26.1818142 C72.9686748,26.1855754 72.9374408,26.1885008 72.9068274,26.1903815 C72.8873837,26.1918442 72.8681469,26.1928889 72.8482896,26.1933069 C72.0781969,26.2119041 71.3927047,25.6236886 71.274388,24.8033214 C71.1556576,23.9814914 71.6475407,23.2194233 72.3932254,23.0158987 C72.4058431,23.0127643 72.4180471,23.009421 72.4300442,23.0064956 C72.462933,22.9983462 72.4962354,22.9922865 72.5299515,22.9864357 C72.5518773,22.9828834 72.5735963,22.9791221 72.5959358,22.9761967 C72.6267561,22.9720176 72.6575763,22.9695101 72.687776,22.9674205 C72.7076334,22.9659578 72.7276976,22.9653309 72.7477618,22.9644951 C73.5180613,22.9463158 74.2031398,23.5343223 74.3214565,24.3540627 C74.4395663,25.1756837 73.9478902,25.9387966 73.2022054,26.1419033 C73.1900014,26.1452466 73.1777974,26.148381 73.1653866,26.1513064 M144.925287,0.0493766641 L89.4444807,0.0725709498 C92.8349158,7.81507427 102.61197,13.5889887 114.455223,14.3621316 L114.459773,16.2231073 L76.7157147,21.7863926 L74.0173909,17.0652062 C73.346378,15.8910738 72.2486391,15.8910738 71.5780399,17.0652062 L68.1590599,23.0474513 L30.509117,28.5967364 L30.5068417,27.5371127 C42.3389244,26.7476712 52.1000514,20.9681149 55.481592,13.228537 L-4.13694706e-05,13.2515223 C3.39494437,21.0046825 13.1951655,26.7840298 25.0609643,27.5444262 L25.0657218,29.3989243 L20.6921412,30.0439762 C19.1606434,30.2694414 18.2987104,31.387991 18.4720485,32.5859445 C18.6449729,33.7832712 19.7867703,34.6069818 21.318475,34.3813076 L65.3945449,27.8848181 L65.1941098,28.2356577 C64.523097,29.4095811 65.0720699,30.3701589 66.4138887,30.3701589 L66.6676904,30.3701589 C61.738311,31.8819666 57.8046947,35.161555 55.9312782,39.3110337 L54.5716705,39.3110337 C53.3791954,39.3110337 52.4132183,40.2877011 52.4132183,41.4917144 C52.4132183,42.6961456 53.3791954,43.6721862 54.5716705,43.6721862 L61.8717275,43.6721862 C63.0637889,43.6721862 64.0299729,42.6961456 64.0299729,41.4917144 C64.0299729,40.4105682 63.2499515,39.5153941 62.2283324,39.343631 C65.4311569,38.3897399 69.0123053,37.8514653 72.7978188,37.8514653 C76.6369058,37.8514653 80.2664565,38.4045759 83.5036177,39.3835419 C82.574873,39.6271864 81.8883466,40.4776435 81.8883466,41.4917144 C81.8883466,42.6961456 82.8549444,43.6721862 84.0476262,43.6721862 L91.3468559,43.6721862 C92.5391241,43.6721862 93.505515,42.6961456 93.505515,41.4917144 C93.505515,40.2877011 92.5391241,39.3110337 91.3468559,39.3110337 L89.6647732,39.3110337 C87.7911498,35.161555 83.8571198,31.8819666 78.9281541,30.3701589 L79.1817489,30.3701589 C80.5237746,30.3701589 81.0729544,29.4095811 80.4017347,28.2356577 L79.0508146,25.8721391 L124.903703,19.1138258 C126.435408,18.8881516 127.296307,17.769602 127.123382,16.5714395 C126.950251,15.3739039 125.808867,14.5504023 124.277369,14.7762854 L119.903168,15.4211283 L119.900893,14.3615047 C131.755315,13.5850185 141.539609,7.80023829 144.925287,0.0493766641" id="Fill-3" fill="#FFFFFF" mask="url(#mask-2)"></path>
                    </g>
                </g>
            </g>
        </g>
    </g>
</svg>