<?xml version="1.0" encoding="UTF-8"?>
<svg width="67px" height="64px" viewBox="0 0 67 64" version="1.1" xmlns="http://www.w3.org/2000/svg" xmlns:xlink="http://www.w3.org/1999/xlink">
    <!-- Generator: Sketch 40.3 (33839) - http://www.bohemiancoding.com/sketch -->
    <title>Page 1</title>
    <desc>Created with Sketch.</desc>
    <defs>
        <polygon id="path-1" points="66.7884548 0 0 0 0 63.9974631 66.7884548 63.9974631 66.7884548 8.19364596e-15"></polygon>
    </defs>
    <g id="Welcome" stroke="none" stroke-width="1" fill="none" fill-rule="evenodd">
        <g id="Desktop-HD-Copy" transform="translate(-1186.000000, -2956.000000)">
            <g id="sec_4-copy" transform="translate(-1.000000, 2160.000000)">
                <g id="Page-1" transform="translate(1187.000000, 796.000000)">
                    <mask id="mask-2" fill="white">
                        <use xlink:href="#path-1"></use>
                    </mask>
                    <g id="Clip-2"></g>
                    <path d="M43.6618026,48.6063279 C43.6618026,45.5844901 41.1763939,43.1248144 38.1229417,43.1248144 C35.0683243,43.1248144 32.5840809,45.5844901 32.5840809,48.6063279 C32.5840809,51.6293189 35.0683243,54.0878414 38.1229417,54.0878414 C41.1763939,54.0878414 43.6618026,51.6293189 43.6618026,48.6063279 L43.6618026,48.6063279 Z M45.151533,55.5627243 C45.151533,55.5627243 41.7788113,54.4591568 40.7499243,54.882364 C39.7198722,55.3038414 38.1229417,58.4438775 38.1229417,58.4438775 C38.1229417,58.4438775 36.5254287,55.3038414 35.4959591,54.882364 C34.4670722,54.4591568 31.0931852,55.5627243 31.0931852,55.5627243 C31.0931852,55.5627243 32.2077157,52.2237694 31.7812461,51.2061117 C31.3547765,50.1867243 28.1818896,48.6063279 28.1818896,48.6063279 C28.1818896,48.6063279 31.3547765,47.0259315 31.7812461,46.0065441 C32.2077157,44.9883099 31.0931852,41.6499315 31.0931852,41.6499315 C31.0931852,41.6499315 34.4670722,42.7534991 35.4959591,42.3308685 C36.5254287,41.909391 38.1229417,38.7682018 38.1229417,38.7682018 C38.1229417,38.7682018 39.7198722,41.909391 40.7499243,42.3308685 C41.7788113,42.7529225 45.151533,41.6499315 45.151533,41.6499315 C45.151533,41.6499315 44.0375852,44.9883099 44.4634722,46.0065441 C44.8905243,47.0259315 48.0645765,48.6063279 48.0645765,48.6063279 C48.0645765,48.6063279 44.8905243,50.1867243 44.4634722,51.2061117 C44.0375852,52.2237694 45.151533,55.5627243 45.151533,55.5627243 L45.151533,55.5627243 Z M42.8449852,48.6063279 C42.8449852,51.1836252 40.7272026,53.2789045 38.1229417,53.2789045 C35.5186809,53.2789045 33.4003157,51.1836252 33.4003157,48.6063279 C33.4003157,46.0290306 35.5186809,43.9337514 38.1229417,43.9337514 C40.7272026,43.9337514 42.8449852,46.0290306 42.8449852,48.6063279 L42.8449852,48.6063279 Z M32.7040983,32.9759135 C31.6775417,32.9759135 30.8257678,32.8311928 30.1237243,32.618436 C30.1237243,32.618436 30.124307,32.6178595 30.124307,32.6167063 C30.1493591,32.5169586 30.170333,32.4154811 30.1889765,32.3122739 C30.1895591,32.3042018 30.191307,32.2961297 30.1924722,32.2886342 C30.210533,32.1831207 30.2245157,32.0764541 30.23442,31.9686342 L31.0611417,31.9680577 C31.2831157,31.9680577 31.4637243,31.7898955 31.4637243,31.5696432 C31.4637243,31.3505441 31.2831157,31.1712288 31.0611417,31.1712288 L30.23442,31.1712288 L30.23442,31.1706523 C30.2221852,31.0466883 30.2058722,30.9244541 30.1843157,30.803373 C30.1819852,30.7953009 30.18082,30.7872288 30.1790722,30.7791568 C30.1633417,30.6932468 30.1458635,30.6084901 30.1248896,30.5243099 C30.8275157,30.3098234 31.6804548,30.163373 32.7052635,30.163373 C33.2220374,30.163373 33.6997765,30.3300036 34.0516722,30.6321297 C34.2270374,30.7837694 34.5218374,31.1060757 34.5218374,31.5696432 C34.5218374,32.3318775 33.6898722,32.9759135 32.7040983,32.9759135 L32.7040983,32.9759135 Z M30.5472809,36.6734991 C30.8059591,37.1157333 30.8997591,37.6087063 30.8112026,38.0607423 C30.7663417,38.2873369 30.6311765,38.7013189 30.2256809,38.9331027 C30.0526461,39.0316973 29.85922,39.0807063 29.6494809,39.0807063 C29.0558026,39.0807063 28.4411504,38.6886342 28.0869243,38.0797694 C27.5794722,37.2102919 27.2823417,36.4169225 27.1162983,35.716382 C27.3341939,35.6546883 27.5445157,35.5768505 27.7472635,35.4822919 L28.146933,36.1666883 C28.2209243,36.2946883 28.3566722,36.3661838 28.4959157,36.3661838 C28.5640809,36.3661838 28.6334113,36.3488865 28.6969157,36.3131387 C28.8897591,36.202436 28.9550113,35.9591207 28.8443157,35.7676973 L28.4411504,35.0786883 C28.6223417,34.9495351 28.7930461,34.8071207 28.9515157,34.6525982 C28.9515157,34.6520216 28.9520983,34.6520216 28.9520983,34.6520216 C29.4875157,35.1461477 30.0392461,35.8005622 30.5472809,36.6734991 L30.5472809,36.6734991 Z M23.7721243,38.0797694 C23.4173157,38.6886342 22.8038287,39.0812829 22.2089852,39.0812829 C21.9998287,39.0812829 21.80582,39.0322739 21.6339504,38.9331027 C21.2278722,38.7013189 21.0932896,38.2873369 21.0484287,38.0618955 C20.9598722,37.6092829 21.0536722,37.1157333 21.3117678,36.6734991 C21.8215504,35.799409 22.3709504,35.1438414 22.90462,34.6502919 C22.9052026,34.6502919 22.9057852,34.651445 22.9063678,34.6520216 C23.0642548,34.8059676 23.2349591,34.948382 23.4161504,35.0781117 L23.4178983,35.0792649 L23.0153157,35.7688505 C22.90462,35.9591207 22.9698722,36.202436 23.1627157,36.3131387 C23.2256374,36.3488865 23.2955504,36.3667604 23.3637157,36.3667604 C23.5023765,36.3667604 23.6381243,36.2946883 23.7126983,36.1678414 L24.1123678,35.4828685 C24.1123678,35.4840216 24.1141157,35.4840216 24.1146983,35.4840216 C24.3151157,35.5768505 24.5225243,35.6541117 24.7386722,35.7158054 L24.7398374,35.7158054 C24.5749591,36.4180757 24.2778287,37.2125982 23.7721243,38.0797694 L23.7721243,38.0797694 Z M19.1543678,32.9770667 C18.6375939,32.9770667 18.1598548,32.810436 17.8085417,32.5083099 C17.6325939,32.3560937 17.3377939,32.034364 17.3377939,31.5707964 C17.3383765,30.8085622 18.1703417,30.1645261 19.155533,30.1645261 L19.1561157,30.1645261 C20.1820896,30.1645261 21.0344461,30.3092468 21.735907,30.521427 C21.735907,30.521427 21.735907,30.5225802 21.7353243,30.5237333 C21.7102722,30.6234811 21.6892983,30.724382 21.6712374,30.8270126 C21.6700722,30.8362378 21.6683243,30.8437333 21.6671591,30.8518054 C21.6485157,30.9573189 21.634533,31.063409 21.6252113,31.1712288 L21.6252113,31.1718054 L20.7990722,31.1718054 C20.575933,31.1718054 20.3953243,31.3505441 20.3953243,31.5702198 C20.3953243,31.7904721 20.575933,31.9686342 20.7990722,31.9686342 L21.6252113,31.9686342 C21.634533,32.0764541 21.6485157,32.1831207 21.6665765,32.2880577 C21.6683243,32.2949766 21.6694896,32.3030486 21.6700722,32.3099676 C21.688133,32.4137514 21.709107,32.5152288 21.7347417,32.6161297 C21.0321157,32.8306162 20.1785939,32.9770667 19.1543678,32.9770667 L19.1543678,32.9770667 Z M28.087507,25.0606703 C28.4423157,24.4518054 29.0558026,24.0585802 29.6506461,24.0585802 C29.8603852,24.0585802 30.0532287,24.1081658 30.2262635,24.2067604 C30.6317591,24.4385441 30.7669243,24.8525261 30.8112026,25.0785441 C30.8997591,25.5305802 30.8071243,26.0235532 30.5478635,26.4669405 C30.0386635,27.3410306 29.4880983,27.9960216 28.9550113,28.4901477 C28.9538461,28.4889946 28.9520983,28.4878414 28.950933,28.4866883 C28.7930461,28.3327423 28.623507,28.1909045 28.4440635,28.0629045 C28.4434809,28.0629045 28.4428983,28.0623279 28.4423157,28.0617514 L28.8443157,27.3710126 C28.9555939,27.1813189 28.8903417,26.937427 28.6969157,26.8273009 C28.5040722,26.7171748 28.2582113,26.7817514 28.1475157,26.9731748 L27.7478461,27.6575712 C27.7472635,27.6575712 27.7472635,27.6569946 27.7466809,27.6569946 C27.5456809,27.5641658 27.3365243,27.4863279 27.1209591,27.4252108 C27.1203765,27.4246342 27.1197939,27.4246342 27.1197939,27.4246342 C27.2846722,26.7217874 27.5818026,25.9272649 28.087507,25.0606703 L28.087507,25.0606703 Z M29.1793157,31.5696432 C29.1793157,33.3616432 27.7210461,34.8192288 25.9289417,34.8198054 C25.0626026,34.8198054 24.2481157,34.4825081 23.6340461,33.8707604 C23.0188113,33.2567063 22.679733,32.4396973 22.679733,31.5707964 C22.679733,29.7787964 24.1380026,28.3206342 25.930107,28.3206342 L25.9306896,28.3206342 C27.7222113,28.3206342 29.1793157,29.7782198 29.1793157,31.5696432 L29.1793157,31.5696432 Z M32.7052635,28.9681297 C31.5417939,28.9681297 30.5618461,29.139373 29.7450287,29.3924901 C30.3730809,28.8187964 31.0122026,28.0634811 31.5948113,27.0642739 C32.4302722,25.6326342 32.0876983,23.8896432 30.8304287,23.1712288 C30.4633852,22.9619315 30.0596374,22.8627604 29.6506461,22.8627604 C28.6567157,22.8627604 27.6330722,23.4485622 27.0411417,24.4627604 C26.4591157,25.4596613 26.1182896,26.3850667 25.9318548,27.2113009 C25.7448374,26.3862198 25.4022635,25.4619676 24.8196548,24.4627604 C24.228307,23.4491387 23.2046635,22.8633369 22.210733,22.8633369 L22.210733,24.0585802 C22.8049939,24.0585802 23.4184809,24.4518054 23.7732896,25.0606703 C24.2795765,25.9289946 24.5772896,26.7229405 24.7439157,27.4234811 L24.743333,27.4240577 C24.5254374,27.4857514 24.3151157,27.5641658 24.1123678,27.6575712 L23.7132809,26.9731748 C23.6020026,26.7823279 23.3555591,26.7177514 23.1627157,26.8273009 C22.9698722,26.937427 22.90462,27.1813189 23.0158983,27.3715892 L23.4178983,28.0617514 C23.2372896,28.1909045 23.0660026,28.3333189 22.9069504,28.488418 C22.3721157,27.9937153 21.8209678,27.3398775 21.3123504,26.4675171 C20.8194635,25.623409 20.9674461,24.5884541 21.634533,24.2073369 C21.8069852,24.1087423 22.0009939,24.0585802 22.210733,24.0585802 L22.210733,22.8633369 C21.8017417,22.8633369 21.3974113,22.9625081 21.0303678,23.172382 C19.7730983,23.8902198 19.431107,25.6337874 20.2659852,27.0648505 C20.8474287,28.0623279 21.487133,28.8164901 22.1175157,29.3896072 C21.3018635,29.1382198 20.321333,28.9692829 19.1561157,28.9692829 L19.155533,28.9692829 C17.4846113,28.9692829 16.1306287,30.1339676 16.1306287,31.5707964 C16.1300461,33.0076252 17.4840287,34.1717333 19.1549504,34.1717333 C20.3178374,34.1717333 21.2977852,34.0010667 22.1146026,33.747373 C21.4865504,34.3210667 20.8480113,35.0769586 20.2654026,36.0767423 C19.4305243,37.5078054 19.7725157,39.2507964 21.0303678,39.9692108 C21.3968287,40.1785081 21.8005765,40.2771027 22.2089852,40.2771027 C23.2034983,40.2771027 24.2277243,39.6913009 24.8190722,38.6771027 C25.399933,37.6802018 25.7413417,36.755373 25.9277765,35.9291387 C26.1159591,36.7530667 26.4573678,37.6784721 27.0405591,38.6771027 C27.631907,39.6913009 28.6555504,40.2771027 29.6494809,40.2771027 C30.0578896,40.2771027 30.4628026,40.1779315 30.8292635,39.9686342 C32.086533,39.2496432 32.429107,37.5066523 31.5942287,36.0755892 C31.0127852,35.0786883 30.3730809,34.3239495 29.7426983,33.7508324 C30.558933,34.0016432 31.5388809,34.1711568 32.7040983,34.1711568 L32.7052635,34.1711568 C34.3761852,34.1711568 35.7295852,33.0064721 35.7307504,31.5696432 C35.7307504,30.1322378 34.3761852,28.9681297 32.7052635,28.9681297 L32.7052635,28.9681297 Z M24.0686722,53.6461838 C23.9521504,53.8468324 23.7336722,53.9719495 23.5000461,53.9719495 C23.3852722,53.9719495 23.2716635,53.941391 23.1720374,53.8843099 L21.6193852,52.9969586 L21.9759417,54.314436 C22.0213852,54.4816432 21.9980809,54.6574991 21.9112722,54.807409 C21.8227157,54.9584721 21.6805591,55.0651387 21.5116026,55.1106883 C21.4562548,55.1262559 21.3991591,55.1325982 21.3408983,55.1325982 C21.044933,55.1325982 20.7839243,54.9348324 20.70702,54.6505802 L20.0108026,52.0784721 L16.7516896,50.2155532 L16.7516896,53.9408144 L18.6544896,55.8244901 C18.7785852,55.9461477 18.8467504,56.1104721 18.8467504,56.283445 C18.8467504,56.4569946 18.7785852,56.6201658 18.6544896,56.7424 C18.5303939,56.8657874 18.3655157,56.9332468 18.1901504,56.9332468 C18.0147852,56.9332468 17.849907,56.8657874 17.7258113,56.7424 L16.7516896,55.7789405 L16.7516896,57.5530667 C16.7516896,57.9111207 16.4568896,58.2028685 16.0950896,58.2028685 C15.732707,58.2028685 15.437907,57.9111207 15.437907,57.5530667 L15.437907,55.7789405 L14.4637852,56.7424 C14.3396896,56.8657874 14.1748113,56.9332468 13.9994461,56.9332468 C13.8240809,56.9332468 13.6592026,56.8657874 13.535107,56.7424 C13.4110113,56.6201658 13.3428461,56.4569946 13.3428461,56.283445 C13.3428461,56.1104721 13.4110113,55.9461477 13.535107,55.8244901 L15.437907,53.9408144 L15.437907,50.2155532 L12.1782113,52.0784721 L11.4819939,54.6505802 C11.4050896,54.9348324 11.1446635,55.1325982 10.8481157,55.1325982 C10.79102,55.1325982 10.7339243,55.1262559 10.6779939,55.1106883 C10.5084548,55.0651387 10.3674635,54.9584721 10.278907,54.807409 C10.1915157,54.6574991 10.1682113,54.4816432 10.2136548,54.314436 L10.5702113,52.9969586 L9.01755913,53.8843099 C8.91735043,53.941391 8.80432435,53.9719495 8.68955043,53.9719495 C8.45534174,53.9719495 8.23686348,53.8468324 8.12092435,53.6461838 C7.93973304,53.3359856 8.04751565,52.9381477 8.36095913,52.7588324 L9.9136113,51.8714811 L8.58293304,51.5191928 C8.41339391,51.4742198 8.27182,51.3664 8.18384609,51.2159135 C8.09587217,51.0660036 8.07315043,50.8907243 8.1180113,50.7229405 C8.19491565,50.4392649 8.45534174,50.2409225 8.75247217,50.2409225 C8.80956783,50.2409225 8.86608087,50.2489946 8.92259391,50.263409 L11.5216113,50.952418 L14.781307,49.0900757 L11.5216113,47.2271568 L8.92259391,47.9178955 C8.86608087,47.9323099 8.80956783,47.940382 8.75188957,47.940382 C8.45534174,47.940382 8.19491565,47.7420396 8.1180113,47.458364 C8.07315043,47.2905802 8.09587217,47.1153009 8.18384609,46.9648144 C8.27123739,46.8143279 8.4128113,46.7065081 8.58293304,46.6621117 L9.9136113,46.3086703 L8.36095913,45.4224721 C8.20889826,45.3348324 8.09995043,45.1947243 8.05508957,45.0275171 C8.00964609,44.8603099 8.03295043,44.6844541 8.12092435,44.5339676 C8.23744609,44.3338955 8.45534174,44.209355 8.69013304,44.209355 C8.80432435,44.209355 8.91735043,44.2393369 9.01755913,44.2958414 L10.5696287,45.1831928 L10.2136548,43.8668685 C10.1192722,43.5203459 10.3278461,43.163445 10.6774113,43.0694631 C10.7333417,43.0550486 10.79102,43.0475532 10.8481157,43.0475532 C11.1446635,43.0475532 11.4050896,43.2458955 11.4819939,43.5295712 L12.1782113,46.1022559 L15.437907,47.9645982 L15.437907,44.2399135 L13.535107,42.3568144 C13.2793417,42.1031207 13.2793417,41.6908685 13.535107,41.4377514 C13.6592026,41.314364 13.8240809,41.2474811 13.9994461,41.2474811 C14.1748113,41.2474811 14.3396896,41.314364 14.4637852,41.4377514 L15.437907,42.4012108 L15.437907,40.6276613 C15.437907,40.2690306 15.732707,39.9772829 16.0950896,39.9772829 C16.4568896,39.9772829 16.7516896,40.2690306 16.7516896,40.6276613 L16.7516896,42.4012108 L17.7252287,41.4377514 C17.849907,41.314364 18.0147852,41.2474811 18.1901504,41.2474811 C18.3655157,41.2474811 18.5303939,41.314364 18.6544896,41.4377514 C18.7785852,41.559409 18.8467504,41.7231568 18.8467504,41.8972829 C18.8467504,42.0708324 18.7785852,42.2340036 18.6544896,42.3568144 L16.7516896,44.2399135 L16.7516896,47.9645982 L20.0108026,46.1022559 L20.70702,43.5295712 C20.7839243,43.2458955 21.044933,43.0475532 21.3414809,43.0475532 C21.3991591,43.0475532 21.4562548,43.0550486 21.5116026,43.0694631 C21.6805591,43.1150126 21.8227157,43.2222559 21.9112722,43.3727423 C21.9980809,43.5226523 22.0213852,43.6979315 21.9759417,43.8657153 L21.6193852,45.1831928 L23.1720374,44.2958414 C23.2716635,44.2393369 23.3852722,44.2082018 23.5000461,44.2082018 C23.7336722,44.2082018 23.9521504,44.3333189 24.0686722,44.5339676 C24.1566461,44.6844541 24.1799504,44.8603099 24.1350896,45.0275171 C24.0890635,45.1947243 23.9806983,45.3348324 23.82922,45.4224721 L22.2765678,46.3086703 L23.6066635,46.6621117 C23.9568113,46.754364 24.1653852,47.1112649 24.0715852,47.458364 C23.9946809,47.7408865 23.7336722,47.9392288 23.437707,47.9392288 C23.3794461,47.9392288 23.322933,47.9323099 23.2670026,47.9178955 L20.6679852,47.2271568 L17.4082896,49.0900757 L20.6674026,50.952418 L23.2670026,50.263409 C23.322933,50.2478414 23.3794461,50.2409225 23.437707,50.2409225 C23.7336722,50.2409225 23.9946809,50.4392649 24.0715852,50.7229405 C24.1653852,51.0688865 23.9568113,51.4257874 23.6072461,51.5186162 L22.2759852,51.8714811 L23.82922,52.7588324 C23.9806983,52.8458955 24.0890635,52.9860036 24.1350896,53.1532108 C24.1799504,53.3215712 24.1566461,53.4951207 24.0686722,53.6461838 L24.0686722,53.6461838 Z M42.2291678,31.9697874 C43.644907,31.5800216 45.4638113,31.8671568 45.3234026,30.547373 C46.1343939,31.2386883 47.0951157,31.6578595 47.7697765,31.6480577 C48.8347852,31.6313369 49.1831852,30.5421838 47.0869591,27.7578955 C48.375107,27.6293189 48.7275852,26.0477694 48.6401939,24.3676252 C49.4156461,25.5599856 50.2732461,26.5649586 51.2001765,26.5516973 C51.3941852,26.5488144 51.591107,26.5009586 51.7909417,26.4012108 C51.583533,29.2068324 52.1247765,30.2204541 52.8215765,30.2100757 C53.526533,30.2002739 54.391707,29.1353369 54.7931243,27.8161297 C54.9836374,28.194364 55.2528026,28.3292829 55.576733,28.3246703 C56.27062,28.3142919 57.2167765,27.6598775 58.1751678,27.3715892 C57.7545243,28.1015351 56.7536026,30.4280216 58.17342,31.3937874 C54.2384809,33.0260757 55.8971678,33.6747243 57.613533,34.033355 C56.7372896,34.7546523 57.3769939,35.5768505 57.9333852,36.2468324 C57.7096635,36.2001297 57.4830287,36.1811027 57.2610548,36.1845622 C56.2420722,36.1989766 55.3081504,36.6867604 55.0535504,37.1238054 C54.6154287,36.1926342 53.4647765,35.7532829 52.5716374,35.765391 C52.37122,35.7688505 52.18362,35.7942198 52.019907,35.8432288 C51.9820374,35.8536072 51.9435852,35.8668685 51.9039678,35.8812829 C51.8958113,35.8841658 51.8864896,35.8870486 51.8777504,35.8905081 C51.0096635,36.2203099 49.9976722,37.3550126 50.1567243,38.5358414 C49.9941765,38.4528144 49.7547243,38.4095712 49.4744896,38.4141838 C48.8015765,38.4239856 47.8962026,38.7024721 47.2518374,39.3274811 C47.3572896,38.4666523 47.4499243,37.433427 46.3196635,37.290436 C47.3532113,36.2883459 48.2475157,35.140382 46.1664374,35.170364 C45.72482,35.1772829 45.1503678,35.2372468 44.4151157,35.3629405 C45.0874461,33.7923459 42.9789852,32.362436 42.2291678,31.9697874 L42.2291678,31.9697874 Z M40.1364374,31.7472288 L41.8650374,32.6518775 C42.3602548,32.9107604 44.1191504,34.0771748 43.6973417,35.061391 L43.1397852,36.3621477 L44.5473678,36.1228685 C45.2132896,36.0087063 45.7615243,35.9481658 46.177507,35.9424 C46.3050983,35.9400937 46.4099678,35.9435532 46.4926983,35.9493189 C46.370933,36.1171027 46.1547852,36.3696432 45.7737591,36.740382 L44.6254374,37.8549045 L46.2212026,38.0561297 C46.4530809,38.0855351 46.4699765,38.1437694 46.4961939,38.2406342 C46.5678548,38.5012468 46.5136722,38.9423279 46.478133,39.2352288 L46.2089678,41.4210306 L47.7971591,39.8786883 C48.2795591,39.4099315 48.9926722,39.1925622 49.4855591,39.1850667 C49.6719939,39.1821838 49.7756983,39.210436 49.7972548,39.2208144 L51.1256026,39.9005982 L50.9292635,38.434364 C50.8366287,37.7465081 51.4087504,37.0234811 51.94242,36.7138595 C51.9756287,36.8458955 52.0082548,36.9802378 52.0408809,37.1145802 C52.1154548,37.3976793 52.1859504,37.6865441 52.2686809,37.9731027 C52.3450026,38.261391 52.4300635,38.547373 52.515707,38.8287423 C52.6001852,39.1106883 52.6922374,39.3868685 52.7813765,39.6544 C52.8769243,39.9190486 52.9631504,40.1790847 53.0610287,40.4200937 C53.1088026,40.5417514 53.1548287,40.659373 53.1996896,40.7741117 C53.2486287,40.8865441 53.2964026,40.9966703 53.3418461,41.1010306 C53.3872896,41.2065441 53.4304026,41.307445 53.4746809,41.4031568 C53.520707,41.4977153 53.56382,41.5876613 53.6051852,41.6718414 C53.6867504,41.841355 53.7607417,41.988382 53.8300722,42.1071568 C53.9623243,42.3458595 54.0386461,42.4830847 54.0386461,42.4830847 L55.0657852,41.7981117 C55.0657852,41.7981117 54.9830548,41.6868324 54.8379852,41.4896432 C54.7622461,41.3927784 54.678933,41.2676613 54.5845504,41.1240937 C54.5367765,41.051445 54.4860896,40.9753369 54.431907,40.8940396 C54.3794722,40.8115892 54.3287852,40.7227964 54.2728548,40.6316973 C54.2169243,40.539445 54.1604113,40.4437333 54.1009852,40.3445622 C54.0444722,40.2419315 53.9862113,40.1375712 53.9267852,40.0285982 C53.8038548,39.8129586 53.6896635,39.5765622 53.56382,39.3349766 C53.4455504,39.0899315 53.3220374,38.8368144 53.2037678,38.5744721 C53.0860809,38.3121297 52.9666461,38.0451748 52.85362,37.7741838 C52.7376809,37.5049225 52.6310635,37.2310486 52.521533,36.9640937 C52.467933,36.8262919 52.4149157,36.6902198 52.3624809,36.5564541 C52.4213243,36.5460757 52.4935678,36.5385802 52.5832896,36.5368505 C53.225907,36.5276252 54.062533,36.8441658 54.3468461,37.4489946 L54.9766461,38.792418 L55.7258809,37.512418 C55.8225939,37.3636613 56.4454026,36.9681297 57.2721243,36.9548685 C57.4451591,36.9525622 57.613533,36.9681297 57.7720026,37.0015712 L59.9486287,37.4582198 L58.53522,35.7567423 C58.3464548,35.5301477 58.0609765,35.1865081 57.9799939,34.929355 C57.9491157,34.8336432 57.9310548,34.7748324 58.1116635,34.6266523 L59.3491243,33.6089946 L57.7754983,33.2797694 C57.251733,33.1702198 56.9330461,33.0710486 56.73962,32.9949405 C56.9872287,32.8127423 57.4865243,32.5152288 58.4752113,32.1058595 L59.7924896,31.5592649 L58.6150374,30.7584 C57.7253939,30.1529946 58.57542,28.2341477 58.8527417,27.7532829 L59.818707,26.071409 L57.9479504,26.6341477 C57.4987591,26.7684901 57.0647157,26.9691387 56.6813591,27.1461477 C56.2712026,27.3352649 55.8056983,27.5503279 55.5644983,27.5537874 C55.5545939,27.5537874 55.54702,27.5532108 55.5411939,27.5526342 C55.5312896,27.5416793 55.5138113,27.5174631 55.4910896,27.4724901 L54.6148461,25.7318054 L54.0473852,27.5935712 C53.7001504,28.7311568 53.0849157,29.3348324 52.8512896,29.4276613 C52.7499157,29.2887063 52.4061765,28.6458234 52.5681417,26.4577153 L52.668933,25.1004541 L51.4407939,25.7127784 C51.3516548,25.7571748 51.2689243,25.7790847 51.1885243,25.7808144 C50.87042,25.7848505 50.283733,25.4711928 49.2962113,23.9513369 L47.7126809,21.5147243 L47.8629939,24.407409 C47.8833852,24.8225441 47.9439765,26.8976432 47.008307,26.9910486 L45.6403417,27.1276973 L46.4624026,28.2185802 C47.777933,29.9661838 47.844933,30.6926703 47.8356113,30.8702559 C47.8163852,30.8737153 47.7901678,30.8765982 47.7569591,30.8765982 C47.3532113,30.8829405 46.5783417,30.5998414 45.83202,29.9633009 L44.3422896,28.6942559 L44.5479504,30.6286703 C44.5526113,30.6799856 44.5508635,30.7099676 44.5491157,30.7238054 C44.4034635,30.8506523 43.7561852,30.935409 43.3670026,30.9855712 C42.9469417,31.0409225 42.4721157,31.1031928 42.0200113,31.2271568 L40.1364374,31.7472288 Z M62.7090287,50.7206342 L53.5055591,50.7206342 L53.5055591,59.8299676 L4.40795913,59.8299676 L4.40795913,19.6252829 L62.7090287,19.6252829 L62.7090287,50.7206342 Z M54.7610809,59.1449946 L54.7610809,51.9625802 L62.0180548,51.9625802 L54.7610809,59.1449946 Z M64.2488635,7.15393153 L54.08642,7.15393153 L54.08642,9.88921081 C54.08642,11.9210667 52.4154983,13.5741117 50.3629678,13.5741117 C48.3104374,13.5741117 46.638933,11.9210667 46.638933,9.88921081 L46.638933,7.15393153 L19.6390983,7.15393153 L19.6390983,9.88921081 C19.6390983,11.9210667 17.9687591,13.5741117 15.9162287,13.5741117 C13.8631157,13.5741117 12.1927765,11.9210667 12.1927765,9.88921081 L12.1927765,7.15393153 L2.53953304,7.15393153 C1.13719391,7.15393153 -5.826087e-05,8.31342703 -5.826087e-05,9.74391351 L-5.826087e-05,61.4086342 C-5.826087e-05,62.8379676 1.13719391,63.9974631 2.53953304,63.9974631 L64.2488635,63.9974631 C65.6512026,63.9974631 66.7884548,62.8379676 66.7884548,61.4086342 L66.7884548,9.74391351 C66.7884548,8.31342703 65.6512026,7.15393153 64.2488635,7.15393153 L64.2488635,7.15393153 Z M52.8308983,9.88921081 C52.8308983,11.2384 51.7262722,12.3321658 50.3629678,12.3321658 C48.9984983,12.3321658 47.8938722,11.2384 47.8938722,9.88921081 L47.8938722,2.4433009 C47.8938722,1.09353514 48.9984983,-0.000230630631 50.3629678,-0.000230630631 C51.7262722,-0.000230630631 52.8308983,1.09353514 52.8308983,2.4433009 L52.8308983,9.88921081 Z M18.3847417,9.88921081 C18.3847417,11.2384 17.279533,12.3321658 15.9162287,12.3321658 C14.5529243,12.3321658 13.447133,11.2384 13.447133,9.88921081 L13.447133,2.4433009 C13.447133,1.09353514 14.5529243,-0.000230630631 15.9162287,-0.000230630631 C17.279533,-0.000230630631 18.3847417,1.09353514 18.3847417,2.4433009 L18.3847417,9.88921081 Z" id="Fill-1" fill="#FFFFFF" mask="url(#mask-2)"></path>
                </g>
            </g>
        </g>
    </g>
</svg>