<?xml version="1.0" encoding="UTF-8"?>
<svg width="110px" height="110px" viewBox="0 0 110 110" version="1.1" xmlns="http://www.w3.org/2000/svg" xmlns:xlink="http://www.w3.org/1999/xlink">
    <!-- Generator: Sketch 40.3 (33839) - http://www.bohemiancoding.com/sketch -->
    <title>icon</title>
    <desc>Created with Sketch.</desc>
    <defs></defs>
    <g id="Welcome" stroke="none" stroke-width="1" fill="none" fill-rule="evenodd">
        <g id="Desktop-HD-Copy" transform="translate(-1161.000000, -2859.000000)" fill="#FEFEFE">
            <g id="sec_4-copy-2" transform="translate(-1.000000, 2160.000000)">
                <g id="Group-11" transform="translate(1000.000000, 593.000000)">
                    <path d="M253.9417,156.486792 L255.444363,146.345434 L263.47725,152.718277 C261.416209,154.69955 258.714865,156.046988 255.655641,156.3984 C255.080016,156.465233 254.508702,156.49326 253.9417,156.486792 L253.9417,156.486792 Z M246.680626,139.390498 L241.060192,139.390498 C241.383577,138.21122 241.862187,137.092308 242.478775,136.055319 L246.680626,139.390498 Z M252.801228,139.390498 L252.533897,139.390498 L244.740315,133.207374 C246.7992,131.226101 249.5027,129.878663 252.561923,129.527251 C253.137549,129.460418 253.711019,129.430236 254.278021,129.436703 L252.801228,139.390498 Z M256.9923,139.869108 C256.819828,139.750533 256.636576,139.653518 256.449013,139.578061 L257.871907,129.969211 C259.572913,130.462912 261.148877,131.28431 262.515718,132.366573 C263.880403,133.450991 265.040278,134.798429 265.90695,136.34421 L256.9923,139.869108 Z M257.740397,143.52336 L257.774892,143.467307 L267.241453,139.724663 C267.375119,140.272261 267.478602,140.839263 267.545435,141.417045 C267.896847,144.474112 267.198335,147.412605 265.736634,149.870332 L257.740397,143.52336 Z M247.10965,154.535702 L251.177835,150.353254 L250.347813,155.956441 C249.200874,155.626588 248.1143,155.143666 247.10965,154.535702 L247.10965,154.535702 Z M204.655649,144.782406 L208.038258,153.285279 L240.450072,153.285279 L248.952945,144.782406 L204.655649,144.782406 Z M202.260443,153.285279 L198.875679,144.782406 L182.374413,144.782406 L190.877286,153.285279 L202.260443,153.285279 Z M219.419259,204.304675 L219.419259,183.000062 L244.005153,157.726435 C247.435191,160.076367 251.699563,161.249177 256.15581,160.736073 C261.062641,160.171227 265.277427,157.670382 268.123216,154.082963 C270.969006,150.497699 272.445798,145.823706 271.880952,140.91472 C271.318261,136.007889 268.815261,131.793103 265.227841,128.94947 C261.642578,126.101525 256.968585,124.624732 252.061754,125.189579 C247.154924,125.754425 242.940138,128.25527 240.094348,131.842689 C238.365316,134.022305 237.140764,136.600762 236.573762,139.390498 L202.510528,139.390498 L194.538006,119.36649 L192.041473,120.356049 L194.54663,119.357867 C194.246959,118.603301 193.638995,118.057858 192.925392,117.80993 L165.741637,106.215495 C164.374796,105.633401 162.796677,106.271548 162.214584,107.636233 C161.634646,109.003074 162.270637,110.58335 163.635322,111.165443 L189.963184,122.393375 L196.730557,139.390498 L175.867904,139.390498 C174.380332,139.390498 173.170872,140.597802 173.170872,142.085374 C173.170872,142.831316 173.472698,143.506113 173.959932,143.993346 L211.905944,183.000062 L211.905944,204.112799 L194.158568,209.655621 C193.035343,210.004877 192.017758,210.619308 192.017758,211.794274 L192.017758,212.960617 C192.017758,214.137739 192.981446,215.101426 194.158568,215.101426 L237.168791,215.101426 C238.345913,215.101426 239.307445,214.137739 239.307445,212.960617 L239.307445,211.794274 C239.307445,210.617153 238.296327,209.996253 237.168791,209.655621 L219.419259,204.304675 Z" id="icon"></path>
                </g>
            </g>
        </g>
    </g>
</svg>