<?xml version="1.0" encoding="UTF-8"?>
<svg width="76px" height="48px" viewBox="0 0 76 48" version="1.1" xmlns="http://www.w3.org/2000/svg" xmlns:xlink="http://www.w3.org/1999/xlink">
    <!-- Generator: Sketch 40.3 (33839) - http://www.bohemiancoding.com/sketch -->
    <title>Page 1</title>
    <desc>Created with Sketch.</desc>
    <defs>
        <polygon id="path-1" points="75.9785217 36.4129655 75.9785217 0.429517241 8.59964675e-05 0.429517241 8.59964675e-05 36.4129655 75.9785217 36.4129655"></polygon>
    </defs>
    <g id="Welcome" stroke="none" stroke-width="1" fill="none" fill-rule="evenodd">
        <g id="Desktop-HD-Copy" transform="translate(-201.000000, -2571.000000)">
            <g id="sec_4-copy" transform="translate(-1.000000, 2160.000000)">
                <g id="Page-1" transform="translate(202.000000, 411.000000)">
                    <path d="M42.9872522,4.15911724 C42.2966435,7.80215172 45.427513,10.9387034 49.0639478,10.2468414 C51.0829043,9.86118621 52.7350783,8.20601379 53.1183826,6.1833931 C53.8073391,2.53870345 50.6781217,-0.592882759 47.0433391,0.0956689655 C45.0227304,0.479668966 43.3689043,2.13484138 42.9872522,4.15911724" id="Fill-1" fill="#FEFEFE"></path>
                    <path d="M24.3211565,8.19674483 C24.3211565,10.8532966 26.472287,13.0099862 29.1256783,13.0099862 C31.7807217,13.0099862 33.9302,10.8532966 33.9302,8.19674483 C33.9302,5.53688276 31.7807217,3.38350345 29.1256783,3.38350345 C26.472287,3.38350345 24.3211565,5.53688276 24.3211565,8.19674483" id="Fill-3" fill="#FEFEFE"></path>
                    <path d="M9.02648696,18.6806069 C7.23553043,18.6806069 5.77831304,20.1421241 5.77831304,21.936331 C5.77831304,23.7305379 7.23553043,25.1887448 9.02648696,25.1887448 C10.8174435,25.1887448 12.2746609,23.7305379 12.2746609,21.936331 C12.2746609,20.1421241 10.8174435,18.6806069 9.02648696,18.6806069" id="Fill-5" fill="#FEFEFE"></path>
                    <g id="Group-9" transform="translate(0.000000, 11.064331)">
                        <mask id="mask-2" fill="white">
                            <use xlink:href="#path-1"></use>
                        </mask>
                        <g id="Clip-8"></g>
                        <path d="M38.4930087,10.0990345 L37.0638783,8.76662069 C35.6611826,7.37131034 34.942487,6.7622069 34.942487,6.7622069 L31.4497913,3.65544828 C31.2746609,3.51144828 31.0846609,3.40055172 30.8864,3.31944828 C30.4766609,3.06786207 29.9958783,2.91889655 29.4787478,2.91889655 L24.4990957,2.91889655 C24.2958783,2.91889655 24.0976174,2.94206897 23.9059652,2.98675862 C23.3541391,3.0297931 22.8188348,3.288 22.4388348,3.7497931 L18.108487,9.048 C18.108487,9.048 18.1068348,9.048 18.1068348,9.05131034 L14.8107478,13.0833103 C14.6455304,13.2835862 14.5497043,13.521931 14.5133565,13.7784828 C14.442313,13.7966897 14.3696174,13.8198621 14.3002261,13.8496552 L10.6522261,14.8990345 L7.19092174,14.8990345 C6.65396522,14.8990345 6.1550087,15.0546207 5.75022609,15.3128276 C5.70892174,15.3393103 5.66926957,15.3657931 5.63126957,15.3906207 L5.61970435,15.4005517 C5.57509565,15.4336552 5.53048696,15.4684138 5.48918261,15.5048276 C5.41153043,15.5726897 5.33883478,15.6438621 5.26944348,15.7183448 L2.67057391,18.3202759 L2.66726957,18.3235862 L0.41866087,20.5762759 C0.1064,20.8907586 -0.0422956522,21.345931 0.010573913,21.8209655 C0.0601391304,22.2513103 0.268313043,22.6717241 0.597095652,23.0011034 C0.977095652,23.3817931 1.47605217,23.5986207 1.97005217,23.5986207 C2.37483478,23.5986207 2.74657391,23.4496552 3.01587826,23.1782069 L5.00013913,21.1903448 L5.29753043,25.7006897 C5.29753043,25.7553103 5.30248696,25.809931 5.30744348,25.8645517 L5.30744348,29.7128276 C5.30744348,29.7508966 5.31074783,29.7873103 5.3124,29.822069 C5.31074783,29.8584828 5.30744348,29.8932414 5.30744348,29.9313103 L5.30744348,33.8855172 C5.30744348,34.8918621 6.17318261,35.7095172 7.23883478,35.7095172 C7.96083478,35.7095172 8.59031304,35.3337931 8.9224,34.7809655 C9.25448696,35.3337931 9.88231304,35.7095172 10.604313,35.7095172 C11.6699652,35.7095172 12.5373565,34.8918621 12.5373565,33.8855172 L12.5373565,29.9313103 C12.5373565,29.8932414 12.5340522,29.8584828 12.5324,29.822069 C12.5340522,29.7873103 12.5373565,29.7508966 12.5373565,29.7128276 L12.5373565,25.8645517 C12.542313,25.809931 12.5456174,25.7553103 12.5472696,25.7006897 L13.0429217,18.168 L15.6880522,17.256 C16.1407478,17.0722759 16.494313,16.7230345 16.684313,16.2728276 C17.2328348,16.3257931 17.7466609,16.1536552 18.070487,15.7564138 L19.1824,14.3958621 L17.4096174,20.3048276 C17.4096174,21.3426207 19.8069217,22.2413793 21.8424,22.6849655 L21.8424,27.2002759 C21.8424,27.2615172 21.8457043,27.3227586 21.852313,27.384 C21.8457043,27.4452414 21.8424,27.5114483 21.8424,27.5726897 L21.8424,34.3324138 C21.8424,35.4827586 22.858487,36.4129655 24.1141391,36.4129655 C25.3681391,36.4129655 26.3858783,35.4827586 26.3858783,34.3324138 L26.3858783,27.5726897 C26.3858783,27.5114483 26.3809217,27.4452414 26.3759652,27.384 C26.3809217,27.3227586 26.3858783,27.2615172 26.3858783,27.2002759 L26.3858783,22.9812414 L27.5919652,22.9812414 L27.5919652,27.2002759 C27.5919652,27.2615172 27.5969217,27.3227586 27.6018783,27.384 C27.5969217,27.4452414 27.5919652,27.5114483 27.5919652,27.5726897 L27.5919652,34.3324138 C27.5919652,35.4827586 28.6080522,36.4129655 29.8637043,36.4129655 C31.1193565,36.4129655 32.1354435,35.4827586 32.1354435,34.3324138 L32.1354435,27.5726897 C32.1354435,27.5114483 32.130487,27.4452414 32.1255304,27.384 C32.130487,27.3227586 32.1354435,27.2615172 32.1354435,27.2002759 L32.1354435,22.6866207 C34.1709217,22.2413793 36.5665739,21.3426207 36.5665739,20.3048276 L33.7975304,11.0755862 L33.8586609,11.1235862 L37.9890957,15.5561379 C38.7011826,16.1437241 39.8808348,15.8954483 40.624313,14.9966897 C40.7581391,14.8344828 40.8671826,14.6606897 40.9547478,14.481931 L43.5172696,10.3026207 C43.5189217,10.3026207 44.7597043,8.35613793 44.7613565,8.35282759 L45.4701391,19.1081379 C45.4701391,19.2157241 45.4767478,19.3183448 45.488313,19.425931 L45.488313,26.5150345 C45.488313,26.5828966 45.4932696,26.6474483 45.4998783,26.7153103 C45.4932696,26.7831724 45.488313,26.8477241 45.488313,26.9155862 L45.488313,34.1768276 C45.488313,35.4115862 46.5804,36.4129655 47.9269217,36.4129655 C49.2767478,36.4129655 50.3671826,35.4115862 50.3671826,34.1768276 L50.3671826,26.9155862 C50.3671826,26.8477241 50.3638783,26.7831724 50.3572696,26.7153103 C50.3638783,26.6474483 50.3671826,26.5828966 50.3671826,26.5150345 L50.3671826,21.9831724 L51.6641391,21.9831724 L51.6641391,26.5150345 C51.6641391,26.5828966 51.6690957,26.6474483 51.6757043,26.7153103 C51.6690957,26.7831724 51.6641391,26.8477241 51.6641391,26.9155862 L51.6641391,34.1768276 C51.6641391,35.4115862 52.7562261,36.4129655 54.1060522,36.4129655 C55.4525739,36.4129655 56.5446609,35.4115862 56.5446609,34.1768276 L56.5446609,26.9155862 C56.5446609,26.8477241 56.5397043,26.7831724 56.5330957,26.7153103 C56.5397043,26.6474483 56.5446609,26.5828966 56.5446609,26.5150345 L56.5446609,19.425931 C56.5562261,19.3216552 56.564487,19.2157241 56.564487,19.1081379 L57.0171826,12.2193103 L58.7271826,15.8408276 C59.0477043,16.5227586 59.8473565,16.8554483 60.706487,16.7462069 C60.782487,16.8173793 60.858487,16.8786207 60.9477043,16.929931 L62.5156174,17.832 L61.2864,17.1302069 L63.9034435,18.6595862 L61.8134435,25.6262069 C61.7969217,25.6841379 61.7870087,25.742069 61.7870087,25.8 C61.7870087,26.4604138 62.3950087,26.9834483 63.6440522,27.4071724 C63.8241391,27.4651034 64.0108348,27.5230345 64.202487,27.5726897 L64.202487,29.5572414 C64.202487,29.592 64.2057913,29.6251034 64.2074435,29.6598621 C64.2057913,29.6929655 64.202487,29.7277241 64.202487,29.7608276 L64.202487,33.4435862 C64.202487,34.4035862 65.0285739,35.1815172 66.0430087,35.1815172 C66.7055304,35.1815172 67.2837913,34.8488276 67.6092696,34.3506207 C67.9330957,34.8488276 68.5130087,35.1815172 69.1738783,35.1815172 C70.1899652,35.1815172 71.0160522,34.4035862 71.0160522,33.4435862 L71.0160522,29.7608276 C71.0160522,29.7277241 71.0127478,29.6929655 71.0094435,29.6598621 C71.0127478,29.6251034 71.0160522,29.592 71.0160522,29.5572414 L71.0160522,27.5726897 C71.2060522,27.5230345 71.3960522,27.4651034 71.574487,27.4071724 C72.8235304,26.9834483 73.4298783,26.4604138 73.4298783,25.8 C73.4298783,25.742069 73.4216174,25.6841379 73.4034435,25.6262069 L72.4699652,22.5128276 L73.2497913,23.1566897 C73.4959652,23.3602759 73.8032696,23.4695172 74.1386609,23.4695172 C74.6508348,23.4695172 75.1729217,23.208 75.5314435,22.7710345 C76.1477043,22.0245517 76.1245739,20.9834483 75.4785739,20.4504828 L74.4277913,19.6195862 L70.4229217,16.2678621 C70.2957043,16.1602759 70.1519652,16.0758621 70.0032696,16.008 C69.6976174,15.8308966 69.3440522,15.7266207 68.9657043,15.7266207 L66.2511826,15.7266207 C66.1305739,15.7266207 66.0116174,15.7398621 65.8926609,15.7597241 L63.1616174,14.1624828 L64.3908348,14.8675862 L62.8510087,13.9787586 C62.8394435,13.9522759 62.8311826,13.9274483 62.8179652,13.9009655 L60.3215304,8.616 L60.3215304,8.61268966 L57.5227478,2.68882759 C57.1890087,1.39613793 55.8259652,0.429517241 54.1936174,0.429517241 L47.8393565,0.429517241 C46.9389217,0.429517241 45.4238783,0.724137931 44.8142261,1.20248276 C44.8109217,1.2057931 44.804313,1.20910345 44.8026609,1.21241379 C44.6390957,1.34151724 44.4920522,1.48386207 44.3631826,1.63613793 L40.7267478,7.09324138" id="Fill-7" fill="#FEFEFE" mask="url(#mask-2)"></path>
                    </g>
                    <path d="M67.3027913,25.9478069 C68.9880087,25.9478069 70.3576609,24.5773241 70.3576609,22.8890483 C70.3576609,21.2024276 68.9880087,19.8319448 67.3027913,19.8319448 C65.6208783,19.8319448 64.2512261,21.2024276 64.2512261,22.8890483 C64.2512261,24.5773241 65.6208783,25.9478069 67.3027913,25.9478069" id="Fill-10" fill="#FEFEFE"></path>
                </g>
            </g>
        </g>
    </g>
</svg>