<?xml version="1.0" encoding="UTF-8"?>
<svg width="110px" height="111px" viewBox="0 0 110 111" version="1.1" xmlns="http://www.w3.org/2000/svg" xmlns:xlink="http://www.w3.org/1999/xlink">
    <!-- Generator: Sketch 40.3 (33839) - http://www.bohemiancoding.com/sketch -->
    <title>icon</title>
    <desc>Created with Sketch.</desc>
    <defs></defs>
    <g id="Welcome" stroke="none" stroke-width="1" fill="none" fill-rule="evenodd">
        <g id="Desktop-HD-Copy" transform="translate(-184.000000, -2498.000000)">
            <g id="sec_4-copy-2" transform="translate(-1.000000, 2160.000000)">
                <g id="icon" transform="translate(185.000000, 339.000000)">
                    <path d="M33.2317231,17.077109 L50.8354957,2.19674941 C53.1395923,0.257292203 56.3463245,0.252497501 58.6575472,2.18716 L67.9071883,9.93300207 L78.5392874,18.8319701 L105.235928,41.050622 C106.817916,42.3715626 107.912955,44.4212979 107.915331,46.5980929 L108.114861,101.415928 C108.124362,105.282856 104.92238,108.514485 101.373597,108.51928 L8.66340299,108.653531 C5.12174532,108.658326 2.58248841,105.436286 2.57536234,101.569358 L2.37583233,46.7539208 C2.37108161,44.5819205 3.12644522,42.5249931 4.70368244,41.1968604 L18.5282617,29.5097728 L33.2317231,17.077109 L33.2317231,17.077109 Z" id="Stroke-1" stroke="#FEFEFE" stroke-width="2"></path>
                    <path d="M62.4305646,38.5314853 C61.4376653,43.8080555 65.9389673,48.3510362 71.1671286,47.3489434 C74.0698152,46.7903605 76.4451724,44.3930092 76.9962553,41.4634459 C77.9867793,36.1844783 73.4878527,31.6486897 68.2620667,32.6459878 C65.3570048,33.2021733 62.9792721,35.5995246 62.4305646,38.5314853" id="Fill-3" fill="#FEFEFE"></path>
                    <path d="M35.5942534,44.379584 C35.5942534,48.2273329 38.6893439,51.3510816 42.5017923,51.3510816 C46.3189914,51.3510816 49.4093312,48.2273329 49.4093312,44.379584 C49.4093312,40.5270405 46.3189914,37.4080864 42.5017923,37.4080864 C38.6893439,37.4080864 35.5942534,40.5270405 35.5942534,44.379584" id="Fill-5" fill="#FEFEFE"></path>
                    <path d="M13.6048587,59.5644072 C11.0299714,59.5644072 8.93490632,61.6812684 8.93490632,64.2799972 C8.93490632,66.878726 11.0299714,68.9907925 13.6048587,68.9907925 C16.179746,68.9907925 18.2748111,66.878726 18.2748111,64.2799972 C18.2748111,61.6812684 16.179746,59.5644072 13.6048587,59.5644072" id="Fill-7" fill="#FEFEFE"></path>
                    <path d="M55.9703055,63.1604342 L53.9156215,61.2305664 C51.8965678,59.2095992 50.8656628,58.3273739 50.8656628,58.3273739 L45.8417822,53.8275455 C45.5923696,53.618976 45.3192036,53.4583534 45.0341607,53.3408832 C44.4426967,52.9764858 43.7514678,52.7607242 43.0103563,52.7607242 L35.8486542,52.7607242 C35.5564852,52.7607242 35.2714424,52.7942871 34.9982763,52.8590156 C34.204907,52.9213467 33.4352912,53.2953335 32.888959,53.9641945 L26.6607723,61.6381161 C26.6607723,61.6381161 26.6607723,61.6381161 26.6607723,61.6429108 L21.9219346,67.4828586 C21.6820235,67.7729381 21.5442528,68.1181567 21.4919949,68.4897461 C21.3898546,68.516117 21.2877142,68.5496799 21.1879492,68.5928322 L15.9431604,70.1127529 L10.9667869,70.1127529 C10.1924205,70.1127529 9.47743792,70.338104 8.89310003,70.7120908 C8.83609146,70.7504484 8.77908288,70.788806 8.72444967,70.8247663 L8.70782217,70.8391504 C8.64131216,70.8870974 8.57955287,70.9374418 8.52016894,70.9901835 C8.40852715,71.0884749 8.30163607,71.191561 8.20424643,71.2994418 L4.46780946,75.0680781 C4.46780946,75.0680781 4.46305875,75.0728728 4.46068339,75.0728728 L1.23019752,78.3356679 C0.778879644,78.7911647 0.565097491,79.4504363 0.643484281,80.1384761 C0.714744998,80.7617874 1.01404001,81.3707147 1.48673611,81.8477876 C2.03069292,82.3991784 2.75042617,82.7132314 3.45828263,82.7132314 C4.04024516,82.7132314 4.57470054,82.4974698 4.96425913,82.1043042 L7.81706319,79.2250852 L8.24225214,85.7578676 C8.2446275,85.8369801 8.25175357,85.9160927 8.25887964,85.9952053 L8.25887964,91.5690471 C8.25887964,91.6241862 8.26363036,91.6769279 8.26600572,91.7272723 C8.26363036,91.780014 8.25887964,91.8303584 8.25887964,91.8854975 L8.25887964,97.6127698 C8.25887964,99.0703593 9.50356685,100.254651 11.0356723,100.254651 C12.0737034,100.254651 12.9763392,99.7104521 13.4561613,98.9097368 C13.9312328,99.7104521 14.8362439,100.254651 15.874275,100.254651 C17.4063804,100.254651 18.653443,99.0703593 18.653443,97.6127698 L18.653443,91.8854975 C18.653443,91.8303584 18.6486923,91.780014 18.6439416,91.7272723 C18.6486923,91.6769279 18.653443,91.6241862 18.653443,91.5690471 L18.653443,85.9952053 C18.6581937,85.9160927 18.6653198,85.8369801 18.6676951,85.7578676 L19.3803023,74.8475218 L23.1832493,73.5265812 C23.8340972,73.2604752 24.3400483,72.7546341 24.6155897,72.1025545 C25.401833,72.1792698 26.1405691,71.9299452 26.6085144,71.3545809 L28.2071299,69.3839581 L25.6583715,77.9425023 C25.6583715,79.4456416 29.1026396,80.7474033 32.0290797,81.3898935 L32.0290797,87.9298678 C32.0290797,88.0185698 32.0362058,88.1072718 32.0457072,88.1959738 C32.0362058,88.2846758 32.0290797,88.3805699 32.0290797,88.4692719 L32.0290797,98.2600546 C32.0290797,99.9262138 33.4922998,101.273525 35.2975713,101.273525 C37.1004674,101.273525 38.5636875,99.9262138 38.5636875,98.2600546 L38.5636875,88.4692719 C38.5636875,88.3805699 38.5565614,88.2846758 38.54706,88.1959738 C38.5565614,88.1072718 38.5636875,88.0185698 38.5636875,87.9298678 L38.5636875,81.8190194 L40.295323,81.8190194 L40.295323,87.9298678 C40.295323,88.0185698 40.302449,88.1072718 40.3095751,88.1959738 C40.302449,88.2846758 40.295323,88.3805699 40.295323,88.4692719 L40.295323,98.2600546 C40.295323,99.9262138 41.758543,101.273525 43.5614392,101.273525 C45.3667107,101.273525 46.8275554,99.9262138 46.8275554,98.2600546 L46.8275554,88.4692719 C46.8275554,88.3805699 46.8204293,88.2846758 46.8156786,88.1959738 C46.8204293,88.1072718 46.8275554,88.0185698 46.8275554,87.9298678 L46.8275554,81.3922908 C49.7563709,80.7474033 53.2006389,79.4456416 53.2006389,77.9425023 L49.2171648,64.5748714 L49.305053,64.6443946 L55.2434462,71.0645014 C56.2696005,71.9155611 57.9656056,71.5559584 59.032141,70.2541967 C59.2245449,70.0192562 59.3836939,69.7675343 59.5072124,69.5086204 L63.1937669,63.4553084 C63.1961423,63.4553084 64.9800356,60.6360232 64.9824109,60.6312285 L66.0014392,76.2092173 C66.0014392,76.3650451 66.0109406,76.5136809 66.0251928,76.6695088 L66.0251928,86.9373644 C66.0251928,87.0356558 66.0323188,87.1291525 66.0418203,87.2274439 C66.0323188,87.3257353 66.0251928,87.419232 66.0251928,87.5175234 L66.0251928,98.0347036 C66.0251928,99.8231277 67.5976793,101.273525 69.5335954,101.273525 C71.4718869,101.273525 73.0419981,99.8231277 73.0419981,98.0347036 L73.0419981,87.5175234 C73.0419981,87.419232 73.0372474,87.3257353 73.027746,87.2274439 C73.0372474,87.1291525 73.0419981,87.0356558 73.0419981,86.9373644 L73.0419981,80.3734165 L74.9066535,80.3734165 L74.9066535,86.9373644 C74.9066535,87.0356558 74.9137796,87.1291525 74.923281,87.2274439 C74.9137796,87.3257353 74.9066535,87.419232 74.9066535,87.5175234 L74.9066535,98.0347036 C74.9066535,99.8231277 76.4767647,101.273525 78.4150562,101.273525 C80.3533477,101.273525 81.9234589,99.8231277 81.9234589,98.0347036 L81.9234589,87.5175234 C81.9234589,87.419232 81.9163328,87.3257353 81.9068314,87.2274439 C81.9163328,87.1291525 81.9234589,87.0356558 81.9234589,86.9373644 L81.9234589,76.6695088 C81.9400864,76.5184756 81.9519632,76.3650451 81.9519632,76.2092173 L82.6028111,66.2314412 L85.0589305,71.4768458 C85.5197498,72.4645546 86.671798,72.9464222 87.9069838,72.788197 C88.0138749,72.8912831 88.1255167,72.9799851 88.253786,73.054303 L90.5056246,74.3608594 L88.7407342,73.3443825 L92.5033001,75.5595351 L89.4960978,85.6499867 C89.4723442,85.733894 89.4604674,85.8178013 89.4604674,85.9017086 C89.4604674,86.8582518 90.3345989,87.6158148 92.130369,88.2295367 C92.3869076,88.313444 92.6576983,88.3973513 92.9332398,88.4692719 L92.9332398,91.3436961 C92.9332398,91.3940405 92.9379905,91.4419875 92.9379905,91.4923319 C92.9379905,91.5402789 92.9332398,91.5906233 92.9332398,91.6385703 L92.9332398,96.972677 C92.9332398,98.3631407 94.1209184,99.4898958 95.5793877,99.4898958 C96.5295306,99.4898958 97.363281,99.0080282 97.8288511,98.2864255 C98.2944211,99.0080282 99.1305468,99.4898958 100.08069,99.4898958 C101.541534,99.4898958 102.729213,98.3631407 102.729213,96.972677 L102.729213,91.6385703 C102.729213,91.5906233 102.724462,91.5402789 102.719712,91.4923319 C102.724462,91.4419875 102.729213,91.3940405 102.729213,91.3436961 L102.729213,88.4692719 C103.002379,88.3973513 103.27317,88.313444 103.529708,88.2295367 C105.325479,87.6158148 106.19961,86.8582518 106.19961,85.9017086 C106.19961,85.8178013 106.187733,85.733894 106.161604,85.6499867 L104.817152,81.1405689 L105.938321,82.0731386 C106.294624,82.3680128 106.734065,82.526238 107.216263,82.526238 C107.954999,82.526238 108.703237,82.1474565 109.221064,81.5145557 C110.107073,80.4333503 110.071442,78.9254163 109.145053,78.1534692 L107.63195,76.9499989 L101.874084,72.0953625 C101.691182,71.9395346 101.486901,71.8172697 101.270744,71.7189783 C100.833678,71.4624617 100.325352,71.3114286 99.7790194,71.3114286 L95.8786828,71.3114286 C95.7052817,71.3114286 95.5318806,71.3306074 95.3632302,71.3593756 L91.4367647,69.0459316 L93.2040305,70.0672033 L90.9878222,68.7798256 C90.9711947,68.741468 90.9593179,68.7055077 90.9426904,68.6671501 L87.3535256,61.0124074 L87.3535256,61.0076127 L83.3296704,52.4274924 C82.8474728,50.555161 80.8878031,49.1551078 78.5433255,49.1551078 L69.4053261,49.1551078 C68.1131318,49.1551078 65.9325538,49.5818364 65.056047,50.2746709 C65.0512963,50.2794656 65.0441702,50.2842603 65.0394195,50.289055 C64.8066345,50.4760484 64.5952277,50.6822206 64.4099498,50.9027769 L59.1817885,58.8068442 L55.9703055,63.1604342 Z" id="Fill-9" fill="#FEFEFE"></path>
                    <path d="M97.3905977,70.0904576 C99.8134621,70.0904576 101.782633,68.1054507 101.782633,65.6601524 C101.782633,63.2172514 99.8134621,61.2322445 97.3905977,61.2322445 C94.9701086,61.2322445 93.0009374,63.2172514 93.0009374,65.6601524 C93.0009374,68.1054507 94.9701086,70.0904576 97.3905977,70.0904576" id="Fill-11" fill="#FEFEFE"></path>
                </g>
            </g>
        </g>
    </g>
</svg>