<?xml version="1.0" encoding="UTF-8"?>
<svg width="110px" height="95px" viewBox="0 0 110 95" version="1.1" xmlns="http://www.w3.org/2000/svg" xmlns:xlink="http://www.w3.org/1999/xlink">
    <!-- Generator: Sketch 40.3 (33839) - http://www.bohemiancoding.com/sketch -->
    <title>icon</title>
    <desc>Created with Sketch.</desc>
    <defs>
        <path d="M40.4729787,4.82553453 C40.4729787,2.46149989 42.3780851,0.533503533 44.7255319,0.533503533 L64.4553191,0.533503533 C66.8004255,0.533503533 68.7055319,2.46149989 68.7055319,4.82553453 L68.7055319,8.29262822 L40.4729787,8.29262822 L40.4729787,4.82553453 Z" id="path-1"></path>
        <mask id="mask-2" maskContentUnits="userSpaceOnUse" maskUnits="objectBoundingBox" x="-5" y="-5" width="38.2325532" height="17.7591247">
            <rect x="35.4729787" y="-4.46649647" width="38.2325532" height="17.7591247" fill="white"></rect>
            <use xlink:href="#path-1" fill="black"></use>
        </mask>
        <polygon id="path-3" points="54.5917128 102.9692 109.183191 102.9692 109.183191 7.00070709 54.5917128 7.00070709 0.000234042554 7.00070709 0.000234042554 102.9692"></polygon>
    </defs>
    <g id="Welcome" stroke="none" stroke-width="1" fill="none" fill-rule="evenodd">
        <g id="Desktop-HD-Copy" transform="translate(-1165.000000, -2507.000000)">
            <g id="sec_4-copy-2" transform="translate(-1.000000, 2160.000000)">
                <g id="Group-12" transform="translate(1000.000000, 242.000000)">
                    <g id="icon" transform="translate(166.000000, 110.000000)">
                        <use id="Path" stroke="#FFFFFF" mask="url(#mask-2)" stroke-width="10" xlink:href="#path-1"></use>
                        <mask id="mask-4" fill="white">
                            <use xlink:href="#path-3"></use>
                        </mask>
                        <g id="Clip-2"></g>
                        <path d="M70.9944681,54.6941737 L59.9265957,54.6941737 L59.9265957,65.8402553 L49.2682979,65.8402553 L49.2682979,54.6941737 L38.1980851,54.6941737 L38.1980851,43.9629177 L49.2682979,43.9629177 L49.2682979,32.8097652 L59.9265957,32.8097652 L59.9265957,43.9629177 L70.9944681,43.9629177 L70.9944681,54.6941737 Z M54.5997872,73.274119 C41.453617,73.274119 30.816383,62.5546478 30.816383,49.3250103 C30.816383,36.0977297 41.453617,25.3688306 54.5997872,25.3688306 C67.7295745,25.3688306 78.3761702,36.0977297 78.3761702,49.3250103 C78.3761702,62.5546478 67.7295745,73.274119 54.5997872,73.274119 L54.5997872,73.274119 Z M94.7638298,8.29262822 L75.2002128,8.29262822 L75.2002128,4.82553453 C75.2002128,-1.1422977 70.3695745,-6 64.4553191,-6 L44.7255319,-6 C38.8089362,-6 33.9853191,-1.1422977 33.9853191,4.82553453 L33.9853191,8.29262822 L14.4170213,8.29262822 C6.48765957,8.29262822 0,14.8190609 0,22.806811 L0,75.4519535 C0,83.4397037 6.48765957,89.9684933 14.4170213,89.9684933 L94.7638298,89.9684933 C102.695532,89.9684933 109.183191,83.4397037 109.183191,75.4519535 L109.183191,22.806811 C109.183191,14.8190609 102.695532,8.29262822 94.7638298,8.29262822 L94.7638298,8.29262822 Z" id="Fill-1" fill="#FEFEFE" mask="url(#mask-4)"></path>
                    </g>
                </g>
            </g>
        </g>
    </g>
</svg>