<?xml version="1.0" encoding="UTF-8"?>
<svg width="68px" height="58px" viewBox="0 0 68 58" version="1.1" xmlns="http://www.w3.org/2000/svg" xmlns:xlink="http://www.w3.org/1999/xlink">
    <!-- Generator: Sketch 40.3 (33839) - http://www.bohemiancoding.com/sketch -->
    <title>Page 1</title>
    <desc>Created with Sketch.</desc>
    <defs>
        <polygon id="path-1" points="67.9316537 57.6868 0 57.6868 0 0 33.9658269 0 67.9316537 0 67.9316537 57.6868"></polygon>
    </defs>
    <g id="Welcome" stroke="none" stroke-width="1" fill="none" fill-rule="evenodd">
        <g id="Desktop-HD-Copy" transform="translate(-1182.000000, -2616.000000)">
            <g id="sec_4-copy" transform="translate(-1.000000, 2160.000000)">
                <g id="Page-1" transform="translate(1183.000000, 456.000000)">
                    <mask id="mask-2" fill="white">
                        <use xlink:href="#path-1"></use>
                    </mask>
                    <g id="Clip-2"></g>
                    <path d="M39.1575796,5.81097297 C42.2704685,9.82237838 39.4220241,15.7502919 34.2527648,15.7502919 C29.0835056,15.7502919 26.2350611,9.82237838 29.3476352,5.81097297 L18.0583759,5.81097297 C18.430487,5.95832432 18.7821352,6.17308108 19.0941167,6.45681081 L30.2757093,16.6237405 C30.8719685,16.4296757 31.5072648,16.3243351 32.1661722,16.3243351 L36.0513019,16.3243351 C37.2516907,16.3243351 38.3746352,16.6729622 39.3225426,17.2739676 L51.2190796,6.45681081 C51.5313759,6.17308108 51.8830241,5.95832432 52.2551352,5.81097297 L39.1575796,5.81097297 Z M62.0537463,0 L63.733913,0 C64.1831537,0 64.5508574,0.366183784 64.5508574,0.813881081 L64.5508574,8.94391351 C64.5508574,9.3912973 64.1831537,9.75748108 63.733913,9.75748108 L62.0537463,9.75748108 C61.6048204,9.75748108 61.2371167,9.3912973 61.2371167,8.94391351 L61.2371167,0.813881081 C61.2371167,0.366183784 61.6048204,0 62.0537463,0 L62.0537463,0 Z M65.9857833,1.0044973 L67.2950981,1.0044973 C67.6451722,1.0044973 67.9316537,1.28979459 67.9316537,1.63873514 L67.9316537,7.97547027 C67.9316537,8.32441081 67.6451722,8.60970811 67.2950981,8.60970811 L65.9857833,8.60970811 C65.6350796,8.60970811 65.3485981,8.32441081 65.3485981,7.97547027 L65.3485981,1.63873514 C65.3485981,1.28979459 65.6350796,1.0044973 65.9857833,1.0044973 L65.9857833,1.0044973 Z M5.87787593,0 L4.19739444,0 C3.7481537,0 3.38076481,0.366183784 3.38076481,0.813881081 L3.38076481,8.94391351 C3.38076481,9.3912973 3.7481537,9.75748108 4.19739444,9.75748108 L5.87787593,9.75748108 C6.32711667,9.75748108 6.69482037,9.3912973 6.69482037,8.94391351 L6.69482037,0.813881081 C6.69482037,0.366183784 6.32711667,0 5.87787593,0 L5.87787593,0 Z M1.9461537,1.0044973 L0.636838889,1.0044973 C0.28645,1.0044973 -3.14814824e-05,1.28979459 -3.14814824e-05,1.63873514 L-3.14814824e-05,7.97547027 C-3.14814824e-05,8.32441081 0.28645,8.60970811 0.636838889,8.60970811 L1.9461537,8.60970811 C2.29654259,8.60970811 2.58270926,8.32441081 2.58270926,7.97547027 L2.58270926,1.63873514 C2.58270926,1.28979459 2.29654259,1.0044973 1.9461537,1.0044973 L1.9461537,1.0044973 Z M34.2527648,3.41008649 C34.6440796,3.41008649 35.0268944,3.44645405 35.3980611,3.51574054 L59.2921907,3.51574054 C60.8108574,3.51574054 60.8108574,5.81097297 59.2921907,5.81097297 L54.791913,5.81097297 C57.1212278,6.72988108 57.6894685,9.79447568 55.8295426,11.4855676 L42.177913,23.8988216 L42.177913,36.9199784 L50.422913,39.5588216 C51.4463759,39.8864432 52.3379315,40.9213514 52.3379315,42.0014054 L52.3379315,55.3567676 C52.3379315,56.5575243 51.3516167,57.5397622 50.1458759,57.5397622 L47.4693204,57.5397622 C46.2638944,57.5397622 45.2775796,56.5575243 45.2775796,55.3567676 L45.2775796,45.1468865 L38.6233389,43.0168757 C37.8397648,43.3808649 36.9683574,43.5843351 36.0513019,43.5843351 L33.4896537,43.5843351 L26.33045,56.1863243 C25.5251537,57.6034054 23.7023759,58.1072216 22.2790981,57.3052541 L21.0629685,56.6199135 C19.6396907,55.8182595 19.1340981,54.0027027 19.9393944,52.5853081 L26.8259685,40.4633081 C26.3260426,39.5807676 26.0398759,38.5640432 26.0398759,37.4830486 L26.0398759,22.4256216 C26.0398759,22.2848541 26.0452278,22.1453405 26.0546722,22.0064541 L14.4836537,11.4855676 C12.6237278,9.79447568 13.1922833,6.72988108 15.5212833,5.81097297 L8.86106111,5.81097297 C7.34239444,5.81097297 7.34239444,3.51574054 8.86106111,3.51574054 L33.1074685,3.51574054 C33.4786352,3.44645405 33.86145,3.41008649 34.2527648,3.41008649 L34.2527648,3.41008649 Z" id="Fill-1" fill="#FFFFFF" mask="url(#mask-2)"></path>
                </g>
            </g>
        </g>
    </g>
</svg>