<?xml version="1.0" encoding="UTF-8"?>
<svg width="58px" height="47px" viewBox="0 0 58 47" version="1.1" xmlns="http://www.w3.org/2000/svg" xmlns:xlink="http://www.w3.org/1999/xlink">
    <!-- Generator: Sketch 40.3 (33839) - http://www.bohemiancoding.com/sketch -->
    <title>Page 1</title>
    <desc>Created with Sketch.</desc>
    <defs>
        <polygon id="path-1" points="0.975 11 14.529 11 14.529 0.1606 0.975 0.1606"></polygon>
    </defs>
    <g id="Welcome" stroke="none" stroke-width="1" fill="none" fill-rule="evenodd">
        <g id="Desktop-HD-Copy" transform="translate(-725.000000, -2608.000000)">
            <g id="sec_4-copy" transform="translate(-1.000000, 2160.000000)">
                <g id="Page-1" transform="translate(726.000000, 449.000000)">
                    <path d="M8.6152,19.4551 L12.3662,19.4551 C12.6442,19.4551 12.8692,19.2291 12.8692,18.9511 L12.8692,9.3091 C12.8692,9.0321 12.6442,8.8071 12.3662,8.8071 L8.6152,8.8071 C8.3372,8.8071 8.1112,9.0321 8.1112,9.3091 L8.1112,18.9511 C8.1112,19.2291 8.3372,19.4551 8.6152,19.4551" id="Fill-1" fill="#FEFEFE"></path>
                    <path d="M15.0854,19.4551 L18.8364,19.4551 C19.1154,19.4551 19.3414,19.2291 19.3414,18.9511 L19.3414,6.4921 C19.3414,6.2141 19.1154,5.9881 18.8364,5.9881 L15.0854,5.9881 C14.8074,5.9881 14.5824,6.2141 14.5824,6.4921 L14.5824,18.9511 C14.5824,19.2291 14.8074,19.4551 15.0854,19.4551" id="Fill-3" fill="#FEFEFE"></path>
                    <path d="M21.5571,19.4551 L25.3071,19.4551 C25.5851,19.4551 25.8111,19.2291 25.8111,18.9511 L25.8111,2.9081 C25.8111,2.6301 25.5851,2.4031 25.3071,2.4031 L21.5571,2.4031 C21.2781,2.4031 21.0531,2.6301 21.0531,2.9081 L21.0531,18.9511 C21.0531,19.2291 21.2781,19.4551 21.5571,19.4551" id="Fill-5" fill="#FEFEFE"></path>
                    <path d="M9.9624,27.4805 C9.9624,25.5415 8.3894,23.9675 6.4494,23.9675 C4.5094,23.9675 2.9364,25.5415 2.9364,27.4805 C2.9364,29.4195 4.5094,30.9935 6.4494,30.9935 C8.3894,30.9935 9.9624,29.4195 9.9624,27.4805" id="Fill-7" fill="#FEFEFE"></path>
                    <path d="M16.7524,34.2188 C18.7914,34.2188 20.4434,32.5668 20.4434,30.5278 C20.4434,28.4898 18.7914,26.8368 16.7524,26.8368 C14.7134,26.8368 13.0614,28.4898 13.0614,30.5278 C13.0614,32.5668 14.7134,34.2188 16.7524,34.2188" id="Fill-9" fill="#FEFEFE"></path>
                    <g id="Group-13" transform="translate(9.000000, 35.023000)">
                        <mask id="mask-2" fill="white">
                            <use xlink:href="#path-1"></use>
                        </mask>
                        <g id="Clip-12"></g>
                        <path d="M12.955,1.5366 L12.118,1.2306 C11.357,0.9516 10.621,0.6146 9.913,0.2236 L9.798,0.1606 L5.705,0.1606 C4.837,0.6426 3.929,1.0506 2.991,1.3816 L2.581,1.5236 C1.596,1.8766 0.975,2.8546 0.975,3.9006 L0.975,6.2726 C0.975,8.8826 3.092,11.0006 5.703,11.0006 L9.802,11.0006 C12.412,11.0006 14.528,8.8836 14.528,6.2736 C14.529,5.3826 14.529,4.5336 14.529,3.9026 C14.529,2.8686 13.925,1.8956 12.955,1.5366" id="Fill-11" fill="#FEFEFE" mask="url(#mask-2)"></path>
                    </g>
                    <path d="M10.1191,34.8418 C10.2321,34.7978 10.3471,34.7588 10.4611,34.7268 C11.1351,34.5318 11.7801,34.2438 12.3751,33.9438 C12.1341,33.6348 11.8231,33.3838 11.4461,33.2378 C11.3691,33.2078 11.2911,33.1808 11.2121,33.1578 C10.2361,32.8748 9.3181,32.4198 8.4281,31.9278 L8.3971,31.9098 L4.5021,31.9098 L4.3481,31.9958 C3.4541,32.4938 2.5011,32.8648 1.5371,33.2058 C1.5281,33.2078 1.5191,33.2128 1.5111,33.2158 C0.5811,33.5548 9.99999993e-05,34.4838 9.99999993e-05,35.4738 L9.99999993e-05,38.6408 C9.99999993e-05,40.6218 1.6051,42.2278 3.5871,42.2278 L6.4491,42.2278 C6.9561,42.2278 7.4481,42.1638 7.9211,42.0518 L7.9211,38.1738 C7.9211,36.6948 8.8051,35.3548 10.1191,34.8418" id="Fill-14" fill="#FEFEFE"></path>
                    <path d="M23.5424,27.4805 C23.5424,29.4195 25.1154,30.9935 27.0554,30.9935 C28.9954,30.9935 30.5684,29.4195 30.5684,27.4805 C30.5684,25.5415 28.9954,23.9675 27.0554,23.9675 C25.1154,23.9675 23.5424,25.5415 23.5424,27.4805" id="Fill-16" fill="#FEFEFE"></path>
                    <path d="M31.9917,33.2149 C31.9827,33.2109 31.9737,33.2079 31.9647,33.2059 C31.0017,32.8649 30.0507,32.4959 29.1587,31.9969 L29.0027,31.9099 L25.1077,31.9099 L25.0767,31.9279 C24.1857,32.4199 23.2667,32.8749 22.2897,33.1589 C22.2117,33.1819 22.1347,33.2079 22.0587,33.2369 C21.6817,33.3839 21.3707,33.6349 21.1297,33.9439 C21.7247,34.2439 22.3697,34.5319 23.0427,34.7269 C23.1577,34.7589 23.2727,34.7979 23.3857,34.8419 C24.6997,35.3549 25.5837,36.6939 25.5837,38.1739 L25.5837,42.0519 C26.0567,42.1639 26.5477,42.2279 27.0557,42.2279 L29.9177,42.2279 C31.8987,42.2279 33.5047,40.6219 33.5047,38.6409 L33.5047,35.4739 C33.5047,34.4829 32.9217,33.5519 31.9917,33.2149" id="Fill-18" fill="#FEFEFE"></path>
                    <path d="M42.4848,8.9141 C44.9148,8.9141 46.8848,6.9431 46.8848,4.5131 C46.8848,2.0791 44.9148,0.1121 42.4848,0.1121 C40.0558,0.1121 38.0848,2.0791 38.0848,4.5131 C38.0848,6.9431 40.0558,8.9141 42.4848,8.9141" id="Fill-20" fill="#FEFEFE"></path>
                    <path d="M42.4848,8.9141 C44.9148,8.9141 46.8848,6.9431 46.8848,4.5131 C46.8848,2.0791 44.9148,0.1121 42.4848,0.1121 C40.0558,0.1121 38.0848,2.0791 38.0848,4.5131 C38.0848,6.9431 40.0558,8.9141 42.4848,8.9141 L42.4848,8.9141 Z" id="Stroke-22" stroke="#FEFEFE" stroke-width="2.2"></path>
                    <path d="M48.4082,10.2891 L48.4042,10.3031 C48.0542,9.9401 47.5862,9.7431 47.1062,9.7421 L47.1062,9.7351 C47.0352,9.7331 46.9662,9.7351 46.8932,9.7351 L37.8652,9.7351 L37.8652,9.7421 C37.3062,9.7431 36.7552,9.9941 36.3992,10.4791 L32.9092,15.2461 L28.9972,11.9121 C28.2342,11.2621 27.0882,11.3521 26.4372,12.1171 C25.7872,12.8801 25.8792,14.0241 26.6412,14.6761 L32.0412,19.2771 C32.3722,19.5601 32.7902,19.7111 33.2202,19.7111 C33.2892,19.7111 33.3612,19.7061 33.4302,19.6991 C33.9322,19.6401 34.3872,19.3751 34.6852,18.9691 L37.8652,14.6241 L37.8652,16.0301 L37.8652,21.8091 L37.8652,37.3001 C37.8652,38.3641 38.6442,39.3141 39.7052,39.4141 C40.9192,39.5251 41.9362,38.5731 41.9362,37.3871 L41.9362,26.8021 C41.9362,26.4971 42.1822,26.2501 42.4852,26.2501 C42.7892,26.2501 43.0352,26.4971 43.0352,26.8021 L43.0352,37.3001 C43.0352,38.3641 43.8142,39.3141 44.8752,39.4141 C46.0892,39.5251 47.1062,38.5731 47.1062,37.3871 L47.1062,24.8061 L47.1062,16.0301 L47.1062,14.6241 L49.2572,18.4371 C49.4112,18.7131 49.6362,18.9431 49.9072,19.1041 L54.9452,22.1281 C55.2372,22.3021 55.5582,22.3871 55.8762,22.3871 C56.4942,22.3871 57.0942,22.0701 57.4352,21.5051 C57.9502,20.6451 57.6712,19.5291 56.8122,19.0131 L52.1882,16.2411 L49.0002,11.2211 L48.5702,10.4791" id="Fill-24" fill="#FEFEFE"></path>
                    <path d="M42.4848,8.9141 C44.9148,8.9141 46.8848,6.9431 46.8848,4.5131 C46.8848,2.0791 44.9148,0.1121 42.4848,0.1121 C40.0558,0.1121 38.0848,2.0791 38.0848,4.5131 C38.0848,6.9431 40.0558,8.9141 42.4848,8.9141" id="Fill-26" fill="#FEFEFE"></path>
                    <path d="M31.2827,20.25 C31.2827,21.032 30.6487,21.667 29.8657,21.667 L4.7767,21.667 C3.9937,21.667 3.3587,21.032 3.3587,20.25 L3.3587,1.417 C3.3587,0.635 3.9937,0 4.7767,0 L29.8657,0 C30.6487,0 31.2827,0.635 31.2827,1.417 L31.2827,20.25 Z" id="Fill-28"></path>
                    <path d="M31.2827,20.25 C31.2827,21.032 30.6487,21.667 29.8657,21.667 L4.7767,21.667 C3.9937,21.667 3.3587,21.032 3.3587,20.25 L3.3587,1.417 C3.3587,0.635 3.9937,0 4.7767,0 L29.8657,0 C30.6487,0 31.2827,0.635 31.2827,1.417 L31.2827,20.25 L31.2827,20.25 Z" id="Stroke-30" stroke="#FEFEFE" stroke-width="2"></path>
                </g>
            </g>
        </g>
    </g>
</svg>