<?xml version="1.0" encoding="UTF-8"?>
<svg width="40px" height="64px" viewBox="0 0 40 64" version="1.1" xmlns="http://www.w3.org/2000/svg" xmlns:xlink="http://www.w3.org/1999/xlink">
    <!-- Generator: Sketch 40.3 (33839) - http://www.bohemiancoding.com/sketch -->
    <title>Page 1</title>
    <desc>Created with Sketch.</desc>
    <defs>
        <polygon id="path-1" points="0.681915232 47.755102 37.1162705 47.755102 37.1162705 0.349806122 0.681915232 0.349806122"></polygon>
        <polygon id="path-3" points="39.7464 0.679183673 0 0.679183673 0 37.0218776 39.7464 37.0218776 39.7464 0.679183673"></polygon>
    </defs>
    <g id="Welcome" stroke="none" stroke-width="1" fill="none" fill-rule="evenodd">
        <g id="Desktop-HD-Copy" transform="translate(-222.000000, -2951.000000)">
            <g id="Page-1" transform="translate(222.000000, 2950.000000)">
                <g id="Group-3" transform="translate(1.333333, 16.565847)">
                    <mask id="mask-2" fill="white">
                        <use xlink:href="#path-1"></use>
                    </mask>
                    <g id="Clip-2"></g>
                    <path d="M18.8990667,10.9633776 C15.9550667,10.9633776 13.5657333,8.58756122 13.5657333,5.65592857 C13.5657333,2.72164286 15.9550667,0.349806122 18.8990667,0.349806122 C21.8444,0.349806122 24.2337333,2.72164286 24.2337333,5.65592857 C24.2337333,8.58756122 21.8444,10.9633776 18.8990667,10.9633776 M36.0484,23.5601122 L30.4430667,20.2185816 L26.4190667,13.0752143 C26.0164,12.3588878 25.2684,11.9662347 24.5004,11.9649082 L24.5004,11.9542959 C24.4137333,11.9516429 24.3297333,11.9542959 24.2430667,11.9542959 L13.2990667,11.9542959 L13.2990667,11.9649082 C12.5284,11.9662347 11.7830667,12.3588878 11.3790667,13.0738878 L7.35506667,20.2185816 L1.75106667,23.5601122 C0.7084,24.1835816 0.371066667,25.5286837 0.995066667,26.5660306 C1.40706667,27.2478673 2.1364,27.6285816 2.8844,27.6285816 C3.26973333,27.6285816 3.6604,27.5264388 4.01373333,27.3168469 L10.1204,23.6715408 C10.4484,23.4778673 10.7204,23.1992959 10.9084,22.8676633 L13.2990667,18.6227653 L13.2990667,19.5460306 L13.2990667,26.5142959 L13.2990667,45.1958265 C13.2990667,46.4785816 14.2430667,47.6247041 15.5297333,47.7454184 C17.0004,47.879398 18.2337333,46.7306224 18.2337333,45.3006224 L18.2337333,32.5354184 C18.2337333,32.1679694 18.5310667,31.8708265 18.8990667,31.8708265 C19.2670667,31.8708265 19.5657333,32.1679694 19.5657333,32.5354184 L19.5657333,45.1958265 C19.5657333,46.4785816 20.5110667,47.6247041 21.7950667,47.7454184 C23.2670667,47.879398 24.5004,46.7306224 24.5004,45.3006224 L24.5004,30.1277653 L24.5004,19.5460306 L24.5004,18.6227653 L26.8910667,22.8676633 C27.0777333,23.1992959 27.3497333,23.4778673 27.6777333,23.6715408 L33.7844,27.3168469 C34.1390667,27.5264388 34.5284,27.6285816 34.9137333,27.6285816 C35.6617333,27.6285816 36.3910667,27.2478673 36.8030667,26.5660306 C37.4270667,25.5286837 37.0897333,24.1835816 36.0484,23.5601122" id="Fill-1" fill="#FEFEFE" mask="url(#mask-2)"></path>
                </g>
                <g id="Group-6" transform="translate(0.000000, 0.647480)">
                    <mask id="mask-4" fill="white">
                        <use xlink:href="#path-3"></use>
                    </mask>
                    <g id="Clip-5"></g>
                    <path d="M19.8730667,0.678918367 C10.3024,0.678918367 -0.000266666666,11.5936122 -0.000266666666,35.5573878 C-0.000266666666,36.3652449 0.6584,37.0218776 1.4704,37.0218776 C2.28373333,37.0218776 2.9424,36.3652449 2.9424,35.5573878 C2.9424,14.5796327 11.4597333,3.6052449 19.8730667,3.6052449 C24.1650667,3.6052449 28.2130667,6.32728571 31.2717333,11.2633061 C34.8917333,17.1066735 36.8037333,25.5062653 36.8037333,35.5573878 C36.8037333,36.3652449 37.4624,37.0218776 38.2744,37.0218776 C39.0890667,37.0218776 39.7464,36.3652449 39.7464,35.5573878 C39.7464,11.5936122 29.4437333,0.678918367 19.8730667,0.678918367" id="Fill-4" fill="#FEFEFE" mask="url(#mask-4)"></path>
                </g>
            </g>
        </g>
    </g>
</svg>