<?xml version="1.0" encoding="UTF-8"?>
<svg width="110px" height="82px" viewBox="0 0 110 82" version="1.1" xmlns="http://www.w3.org/2000/svg" xmlns:xlink="http://www.w3.org/1999/xlink">
    <!-- Generator: Sketch 40.3 (33839) - http://www.bohemiancoding.com/sketch -->
    <title>icon</title>
    <desc>Created with Sketch.</desc>
    <defs>
        <polygon id="path-1" points="0.354776154 80.9545833 51.79764 80.9545833 51.79764 0.450245278 0.354776154 0.450245278"></polygon>
    </defs>
    <g id="Welcome" stroke="none" stroke-width="1" fill="none" fill-rule="evenodd">
        <g id="Desktop-HD-Copy" transform="translate(-189.000000, -2873.000000)">
            <g id="sec_4-copy-2" transform="translate(-1.000000, 2160.000000)">
                <g id="Group-8" transform="translate(0.000000, 593.000000)">
                    <g id="icon" transform="translate(190.000000, 120.000000)">
                        <path d="M25.856381,18.8753145 C22.0460542,18.8753145 18.953615,15.7904281 18.953615,11.9838403 C18.953615,8.17380757 22.0460542,5.09408853 25.856381,5.09408853 C29.6684335,5.09408853 32.759147,8.17380757 32.759147,11.9838403 C32.759147,15.7904281 29.6684335,18.8753145 25.856381,18.8753145 M47.018536,23.5706803 L40.8802513,28.7913897 L35.4029064,21.3280661 C34.8437824,20.5667486 33.9809366,20.1740327 33.106011,20.1723103 L33.106011,20.1619756 C32.9938411,20.1585308 32.8851225,20.1619756 32.7729526,20.1619756 L18.606751,20.1619756 L18.606751,20.1723103 C17.7318254,20.1740327 16.8672539,20.5667486 16.3098556,21.3280661 L10.8342364,28.7913897 L4.69595173,23.5706803 C3.49832183,22.5527195 1.70015127,22.6939594 0.680267592,23.8910538 C-0.339616089,25.0847033 -0.196383694,26.8777612 1.00124621,27.8974444 L9.47266583,35.1041248 C9.99037328,35.5450689 10.6461361,35.7810429 11.3208814,35.7810429 C11.4313257,35.7810429 11.5417699,35.7758756 11.6522142,35.7638185 C12.4374038,35.6708069 13.1518401,35.2574218 13.6195025,34.6201197 L18.606751,27.8164899 L18.606751,30.019488 L18.606751,39.0674545 L18.606751,63.324548 C18.606751,64.9901455 19.8319919,66.4783319 21.4938329,66.6350738 C23.3989963,66.80904 24.9935352,65.3174087 24.9935352,63.4606206 L24.9935352,46.8856003 C24.9935352,46.408485 25.3800901,46.0226589 25.856381,46.0226589 C26.3326719,46.0226589 26.7192268,46.408485 26.7192268,46.8856003 L26.7192268,63.324548 C26.7192268,64.9901455 27.9410163,66.4783319 29.604583,66.6350738 C31.5097464,66.80904 33.106011,65.3174087 33.106011,63.4606206 L33.106011,43.7593754 L33.106011,30.019488 L33.106011,27.8164899 L38.0949852,34.6201197 C38.5609219,35.2574218 39.2753582,35.6708069 40.0622735,35.7638185 C40.1709921,35.7758756 40.2814363,35.7810429 40.3918806,35.7810429 C41.066626,35.7810429 41.7223887,35.5450689 42.2383705,35.1041248 L50.7115158,27.8974444 C51.9091457,26.8777612 52.0523781,25.0847033 51.0324944,23.8910538 C50.0126107,22.6939594 48.2144402,22.5527195 47.018536,23.5706803 M49.6657467,32.2638246 C48.6148006,32.2638246 47.762309,33.114709 47.762309,34.1636737 C47.762309,61.4005848 36.7385917,75.6520364 25.8494782,75.6520364 C14.9603648,75.6520364 3.93664747,61.4005848 3.93664747,34.1636737 C3.93664747,33.114709 3.08415586,32.2638246 2.03148404,32.2638246 C0.982263606,32.2638246 0.12804631,33.114709 0.12804631,34.1636737 C0.12804631,47.9207855 2.80114246,59.5179602 7.85396719,67.7029853 C12.5340426,75.2817122 18.9260039,79.4534569 25.8494782,79.4534569 C38.2364919,79.4534569 51.5709102,65.2812375 51.5709102,34.1636737 C51.5709102,33.114709 50.7184186,32.2638246 49.6657467,32.2638246" id="Fill-1" fill="#FEFEFE"></path>
                        <g id="Group-5" transform="translate(57.965659, 0.260239)">
                            <mask id="mask-2" fill="white">
                                <use xlink:href="#path-1"></use>
                            </mask>
                            <g id="Clip-4"></g>
                            <path d="M26.0762081,33.1817335 C22.2658812,33.1817335 19.173442,30.0968471 19.173442,26.2902593 C19.173442,22.4802266 22.2658812,19.4005075 26.0762081,19.4005075 C29.8882606,19.4005075 32.9806998,22.4802266 32.9806998,26.2902593 C32.9806998,30.0968471 29.8882606,33.1817335 26.0762081,33.1817335 M48.2720523,49.5380042 L41.0172452,45.199183 L35.8091082,35.9238547 C35.2879494,34.9937382 34.3198364,34.4838966 33.3258381,34.4821741 L33.3258381,34.4683946 C33.2136682,34.4649498 33.1049496,34.4683946 32.9927796,34.4683946 L18.8283037,34.4683946 L18.8283037,34.4821741 C17.8308541,34.4838966 16.8661925,34.9937382 16.343308,35.9221322 L11.135171,45.199183 L3.8820896,49.5380042 C2.53259884,50.34755 2.09599889,52.0941021 2.90362251,53.4410486 C3.43686119,54.3263817 4.38081444,54.8207213 5.34892738,54.8207213 C5.84765222,54.8207213 6.35327984,54.6880936 6.81058809,54.4159484 L14.7142552,49.682689 C15.1387753,49.431213 15.4908164,49.0695011 15.7341389,48.6388916 L18.8283037,43.1270902 L18.8283037,44.325907 L18.8283037,53.3738735 L18.8283037,77.630967 C18.8283037,79.2965645 20.0500933,80.7847509 21.7153856,80.9414927 C23.6188234,81.115459 25.215088,79.6238277 25.215088,77.7670396 L25.215088,61.1920193 C25.215088,60.714904 25.5999172,60.3290779 26.0762081,60.3290779 C26.5524989,60.3290779 26.9390538,60.714904 26.9390538,61.1920193 L26.9390538,77.630967 C26.9390538,79.2965645 28.1625691,80.7847509 29.82441,80.9414927 C31.7295735,81.115459 33.3258381,79.6238277 33.3258381,77.7670396 L33.3258381,58.0657944 L33.3258381,44.325907 L33.3258381,43.1270902 L36.420003,48.6388916 C36.6615998,49.0695011 37.0136409,49.431213 37.438161,49.682689 L45.3418281,54.4159484 C45.800862,54.6880936 46.3047639,54.8207213 46.8034888,54.8207213 C47.7716017,54.8207213 48.715555,54.3263817 49.2487937,53.4410486 C50.0564173,52.0941021 49.6198173,50.34755 48.2720523,49.5380042 M26.0762081,0.450245278 C13.6891944,0.450245278 0.354776154,14.6224647 0.354776154,45.7383061 C0.354776154,46.7872708 1.20726776,47.6416 2.25821389,47.6416 C3.31088571,47.6416 4.16337731,46.7872708 4.16337731,45.7383061 C4.16337731,18.5013949 15.1870947,4.24994338 26.0762081,4.24994338 C31.631209,4.24994338 36.8704085,7.78438603 40.8291448,14.1953001 C45.5143972,21.7809167 47.9890389,32.6873938 47.9890389,45.7383061 C47.9890389,46.7872708 48.8415305,47.6416 49.8924766,47.6416 C50.9468741,47.6416 51.79764,46.7872708 51.79764,45.7383061 C51.79764,14.6224647 38.4632217,0.450245278 26.0762081,0.450245278" id="Fill-3" fill="#FEFEFE" mask="url(#mask-2)"></path>
                        </g>
                    </g>
                </g>
            </g>
        </g>
    </g>
</svg>